<svg xmlns="http://www.w3.org/2000/svg" viewBox="0 0 640 512"><!--! Font Awesome Free 6.3.0 by @fontawesome - https://fontawesome.com License - https://fontawesome.com/license/free (Icons: CC BY 4.0, Fonts: SIL OFL 1.1, Code: MIT License) Copyright 2023 Fonticons, Inc.--><path fill="#091836" d="M160 64a64 64 0 0 1 64-64h352a64 64 0 0 1 64 64v288a64 64 0 0 1-64 64H336.8a166 166 0 0 0-52.4-64H384v-32a32 32 0 0 1 32-32h64a32 32 0 0 1 32 32v32h64V64H224v49.1A127 127 0 0 0 160 96zm0 64a96 96 0 1 1 0 192 96 96 0 1 1 0-192m-26.7 224h53.3c73.7 0 133.4 59.7 133.4 133.3a26.7 26.7 0 0 1-26.7 26.7H26.7A26.6 26.6 0 0 1 0 485.3C0 411.7 59.7 352 133.3 352"/></svg>