<svg xmlns="http://www.w3.org/2000/svg" viewBox="0 -15 545 512"><!--! Font Awesome Free 6.3.0 by @fontawesome - https://fontawesome.com License - https://fontawesome.com/license/free (Icons: CC BY 4.0, Fonts: SIL OFL 1.1, Code: MIT License) Copyright 2023 Fonticons, Inc.--><path fill="#091836" d="m273.8 45.8 73.7 28-76.3 29.2-76.4-29.3 73.7-28a7 7 0 0 1 5.3 0zM128.1 87.1v105.5l-3.6 1.2-90.4 34.3a53 53 0 0 0-34 49.3v112.1a53 53 0 0 0 31.5 48.3l90.4 39.7a53 53 0 0 0 42.4 0l106.8-46.9L378 477.5a53 53 0 0 0 42.4 0l90.4-39.7a53 53 0 0 0 31.5-48.3V277.4a53 53 0 0 0-34-49.3l-90.4-34.3-3.6-1.2V87.1a53 53 0 0 0-34-49.3L289.9 3.5a52 52 0 0 0-37.4 0l-90.4 34.3a53 53 0 0 0-34 49.3m241 111.1-77.5 29.4v-84l77.5-29.7zm-223.3 37.9 73.7 28-76.4 29.3-76.3-29.3 73.7-28a7 7 0 0 1 5.3 0m17.7 192.4v-94.6l77.5-29.7v90.2zm233-192.4a7 7 0 0 1 5.3 0l73.7 28-76.4 29.3-76.4-29.3zm96.1 160.3-73 32.1v-94.6l77.5-29.7v85.3c0 3-1.8 5.7-4.5 6.9"/></svg>