<svg xmlns="http://www.w3.org/2000/svg" viewBox="65 60 250 250"><defs><style>.cls-2{fill:#fc6d26}</style></defs><g id="LOGO"><path d="m282.8 170.7-.2-.7-26.2-68.2a7 7 0 0 0-2.7-3.2 7 7 0 0 0-8 .4 7 7 0 0 0-2.3 3.5l-17.6 54h-71.5l-17.7-54a7 7 0 0 0-2.3-3.5 7 7 0 0 0-8-.4 7 7 0 0 0-2.7 3.2L97.4 170l-.2.7a48.5 48.5 0 0 0 16 56l.2.2.2.1 39.8 29.8 19.7 15 12 9a8 8 0 0 0 9.8 0l12-9 19.7-15 40-30h.1a49 49 0 0 0 16.1-56" style="fill:#e24329"/><path d="m282.8 170.7-.2-.7a88 88 0 0 0-35.2 15.8L190 229.2l36.6 27.7 40-30h.1a49 49 0 0 0 16.1-56.2" class="cls-2"/><path d="m153.4 256.9 19.7 14.9 12 9a8 8 0 0 0 9.8 0l12-9 19.7-15-36.6-27.6z" style="fill:#fca326"/><path d="M132.6 185.8A88 88 0 0 0 97.4 170l-.2.7a48.5 48.5 0 0 0 16 56l.2.2.2.1 39.8 29.8 36.6-27.6Z" class="cls-2"/></g></svg>