<svg xmlns="http://www.w3.org/2000/svg" width="800" height="800" preserveAspectRatio="xMidYMid" viewBox="-46 0 348 348"><path fill="#F6D2A2" d="M3.7 188.2c.5 10.2 10.7 5.4 15.3 2.3 4.4-3.1 5.7-.5 6.1-6.5q.6-6 .5-11.9a29 29 0 0 0-19.3 5c-3 2-8 8.6-2.6 11m204.5 126.2c7.9 4.9 22.3 19.6 10.4 26.8-11.3 10.3-17.7-11.5-27.6-14.5 4.2-5.9 9.6-11.2 17.2-12.3M67.3 331c-9.2 1.3-14.4 9.7-22.2 14-7.2 4.2-10-1.4-10.6-2.6-1.1-.5-1 .5-2.8-1.3-6.8-10.7 7-18.5 14.1-23.7 10-2 16.3 6.6 21.5 13.5m184.7-144c-.6 10.2-10.8 5.4-15.4 2.3-4.4-3.1-5.7-.5-6.1-6.5q-.6-6-.5-11.9a29 29 0 0 1 19.3 5c2.8 2 8 8.6 2.6 11"/><path fill="#69D7E2" d="M224.7 61.8C260.3 49.2 232.5.5 201.5 22 181.2 4.6 153.2 1.4 123.8 1.4 95 3.7 67.6 9 48.5 25.7c-30.9-20-59.4 27.9-23.1 40-10.2 39.4 1.4 79.6-.2 119.8-1.5 36-11 84.3 9 116.7 17.1 27.7 53.8 37.6 84 38.7 38.5 1.4 85.2-8.1 104-45.5C240 260 235 215.6 232.7 177.2c-2.3-38.7 2-78-8-115.4"/><path d="M254.6 180.8c-1-2.1-2.9-4.5-4.7-5.8-4.6-3.3-10.4-5-16.5-5.3-.2-6.1-.4-13-.4-21.5v-7.7c-.1-24.6-.4-35.3-1.8-48.8a197 197 0 0 0-5.2-29.4q12.2-4.8 15.5-14.8c2-6 1-13-2.4-19-3.5-6-9.1-10.5-15.6-12.3q-10.7-2.9-21.8 4.4a76 76 0 0 0-22.3-12.8c-14.8-5.5-32-7.6-55.5-7.6v1-1c-25 2-43.6 5.9-59 13.3Q55.7 18 48.5 24.3q-11.3-6.9-22.1-3.5c-6.6 2-12.3 6.7-15.6 12.8-3.4 6-4.2 13-2 19q3.6 9.1 15.5 13.5-3.7 15-4 32.5c-.2 11.5.3 20.6 2.1 41.4 1.3 15.4 1.8 22.5 2 31a30 30 0 0 0-18.6 5.2A15 15 0 0 0 1 182q-2 4.4 1.8 6.8.8 7.1 7.2 6.5c3-.3 6.5-1.9 9.6-4q1-.8 2.1-1.2l.8-.3.8-.3.8-.4c-.2 4.6-.6 9.5-1.5 20.7-1 12.5-1.5 19.4-1.7 27-.9 28.6 2.5 49.3 12.7 65.7q4.8 7.8 11.6 14l-5.9 4.2q-6.1 4.6-8.7 9-3.4 5.7.3 11.8l.2.2q1.4 1.4 2.5 1.4h.3q0 .3.3.5l.9 1.3c2.5 2.8 6 3.5 10.6.7a34 34 0 0 0 8-6l.3-.1c6-5.2 9-7.1 13.5-7.8l1.6-.3 2 .8c14 5.7 30.5 8.8 47.1 9.4 21.6.8 42.3-2 59.8-8.3q7-2.6 13.3-5.9c2.5 1 4.7 3.1 9 8l.2.4.3.4.7.8a23 23 0 0 0 8 6.9q5 2.1 9.7-2.3c5.8-3.6 6.2-9.2 2.4-15.6a43 43 0 0 0-11.6-12q7.8-7.7 13.1-18c9.6-19.2 13.3-41.5 13-70.2 0-10.1-.4-19-1.5-36v-.4l1.5.9c3 2 6.7 3.7 9.6 4 4.1.4 6.8-1.8 7.2-6.5q3.7-2.5 1.7-7M223 18.3c6 1.6 11.2 5.8 14.4 11.4s4 11.8 2.3 17.4q-3 9-14.2 13.4a162 162 0 0 0-5.3-15.8c3-2.5 4.3-5.6 2-10-2.3-4.3-6.2-4.8-10.3-3.5a74 74 0 0 0-8.5-9.2 24 24 0 0 1 19.6-3.7M10.6 52a20 20 0 0 1 1.8-17.3 25 25 0 0 1 14.5-11.8q9.7-3 20 3a66 66 0 0 0-10.3 11.9C31.4 35 26 34.6 23 40c-3 6 .5 9.6 5.6 12.4a83 83 0 0 0-4 12q-11-4.2-14.1-12.4m12 135.8-.7.3q-.5 0-.9.4-1.2.5-2.4 1.4c-2.8 2-6.1 3.4-8.7 3.6q-4.5.6-5-4.5c2-.7 3-1.2 3.8-2.4L7 185.4c-.6.8-1.2 1-3 1.7h-.2q-2.4-1.2-1-4.2c.8-1.8 2.6-3.9 4-5a27 27 0 0 1 17.6-4.8v7.4l-.1.8c0 1.4 0 2-.2 2.7-.3 2.9-.5 3.3-1.6 3.8m30 150.3-.1.2a44 44 0 0 1-7.8 5.8c-3.8 2.2-6.3 1.7-8.1-.4l-.7-1-.3-.4v-.1c.2-1.8.9-3.1 2.7-6v-.1c1.1-1.6 1.6-2.5 2.1-3.6l-1.8-.8c-.3.9-.8 1.7-1.8 3.3l-.1.2a17 17 0 0 0-3 6h-.4l-1-.7c-3.8-6.2-.7-11.5 8-18l5.8-4.2.6-.2a84 84 0 0 0 18.6 11.8l.2.3c-4 1-7.2 3.1-12.8 7.9M220 327.2q4.8 7.9-.9 12.3l-.9-2.3v-.2a18 18 0 0 0-4-7.2l-1.4 1.4c1.5 1.4 2.2 2.9 3.6 6.4v.2l1.2 2.8q-3.9 3.2-7.3 1.5a23 23 0 0 1-8.2-7.6l-.3-.4a33 33 0 0 0-8.3-7.9 80 80 0 0 0 15-11 45 45 0 0 1 11.5 12m1.4-32.3a75 75 0 0 1-44 36.8 159 159 0 0 1-59 8c-36.6-1.2-68.3-14-83.1-38-10-16.1-13.3-36.5-12.4-64.6.3-7.7.7-14.6 1.7-27.1 1.1-14.2 1.4-18.2 1.7-24.6q.3-6.9.1-14.3c-.2-8.7-.7-15.7-2-31.3a363 363 0 0 1-2-41.2c.2-15 2.2-28 6.4-40.5a70 70 0 0 1 37.1-42.8C80.8 8 99.1 4.2 124 2.2c23.2 0 40.2 2 54.8 7.5a70 70 0 0 1 39.5 35.2 167 167 0 0 1 11 47c1.4 13.3 1.7 24 1.8 48.5v7.7c.1 12 .3 20.5.8 29l.8 12.6c1 16.9 1.5 25.7 1.6 35.8.2 28.6-3.4 50.6-12.9 69.4m30.5-109-.3-.1c-1.8-.6-2.4-1-3-1.7l-1.6 1.2c1 1.2 1.8 1.7 3.8 2.4-.4 3.6-2 4.8-5 4.5a20 20 0 0 1-8.7-3.6l-2.4-1.4-.3-.1-.6-9.8-.3-5.4c5.6.1 11 1.8 15.2 5 1.5 1 3.3 3.1 4.1 4.9q1.6 2.7-.9 4"/><path fill="#FFF" d="M139 104.1c0 5.1 1 10.7.1 16-1.4 2.7-4 3-6.3 4a9 9 0 0 1-7.1-5.6c-.8-6.1.2-11.9.5-18a27 27 0 0 1 12.7 3.6m-28.2.4c-2.8 10.6 3.7 27.8 14.4 13.7-.8-6 0-11.8.4-17.7 0-.5-14.7 3.3-14.8 4"/><path d="m140.1 108.8-.3-5.7v-.7l-.7-.2-12.5-3.9v-.7l-1.3.3h-.1v.1l-14.2 3.6-.5.1-.2.5a23 23 0 0 0 1.1 18.2c3.2 5.5 8.4 5.6 13.7-.7 1.5 2.9 4.3 4.8 7.4 5.3h.6l1.5-.7h.2c3-1 4.1-1.8 5.1-3.7l.1-.1v-.2q.4-2.7.4-5.8c0-1.5 0-3-.3-5.7m-16-3.7c0 1.8-.1 2.5-.2 3.5-.2 3.7-.2 6.5 0 9.3-4.6 6-8.3 6-10.8 1.5a21 21 0 0 1-1-16l12.5-3.2zm14 14.8c-.7 1.2-1.6 1.8-4 2.6h-.2l-1.3.5c-2.6-.4-5-2.2-6-4.7a55 55 0 0 1-.1-9.2c0-1 0-1.7.3-3.5l.3-5 10.8 3.3.3 5.1.3 5.7a28 28 0 0 1-.4 5.2"/><g transform="translate(48.5 22)"><path fill="#FFF" d="M2.3 38.7c9.2 35.7 66.2 26.5 64-9.2-2.5-42.8-72.8-34.6-64 9.2"/><path d="M67.3 29.4A29 29 0 0 0 54.6 5.9 36 36 0 0 0 30 .6C21 1.8 13 5.8 7.6 12.1q-9.2 10.6-6.2 26.6l.9-.2-1 .2c9.5 36.7 68.2 27.8 66-9.3M3.2 38.5c-2-10 .2-18.6 5.8-25 5-6 12.7-9.8 21.2-11 8.4-1 17 .7 23.3 5 7 4.9 11.3 12.3 12 22.2 2 34.7-53.4 43.1-62.3 8.8"/><ellipse cx="18" cy="32.9" rx="9.7" ry="10.5"/><ellipse cx="22.4" cy="35.3" fill="#FFF" rx="2.3" ry="2.7"/></g><g transform="translate(129.6 18.1)"><path fill="#FFF" d="M1.2 36c7 40.9 74 30 64.3-11.2C57-12.2-1.2-2 1.2 36"/><path d="M66.4 24.6C57.6-13.5-2.2-3.1.2 36.1c3.3 19.4 20.5 29.2 39.5 26a36 36 0 0 0 21.6-11.8 29 29 0 0 0 5.1-25.7m-6.6 24.5C55 55 47.8 59 39.4 60.3c-18 3-34.1-6.3-37.3-24.4C-.1-1 56.3-11 64.6 25q3.2 14.4-4.8 24.1"/><ellipse cx="17.6" cy="34.2" rx="9.5" ry="10.5"/><ellipse cx="22" cy="36.6" fill="#FFF" rx="2.2" ry="2.7"/></g><path fill="#F6D2A2" d="M112.8 83c-7.9.7-14.3 10-10.2 17.3 5.4 9.8 17.5-.9 25 .1 8.6.2 15.7 9.2 22.5 1.6 7.7-8.3-3.2-16.5-12-20z"/><path fill="#231F20" d="M151.1 89.7a32 32 0 0 0-12.4-8.6h-.4l-25.5 1c-8.9.7-15.3 11-11 18.7q2.5 4.4 7.1 4.7a22 22 0 0 0 8.4-1.7l1.2-.4c5-1.7 7-2.2 9-1.9 2.4 0 4.4.7 8.2 2.2 4.2 1.7 5.5 2.2 7.6 2.4a9 9 0 0 0 7.6-3.3c4-4.3 3.7-8.8.2-13.1m-1.7 11.7a7 7 0 0 1-6 2.7c-1.8 0-3-.6-7-2.2s-6.2-2.3-8.8-2.4c-2.5-.3-4.6.2-9.8 2l-1.2.4c-7.3 2.5-10.8 2.3-13.2-2-3.6-6.5 2-15.3 9.4-16l25.2-1c4.8 2 9 4.9 11.5 8q4.6 5.4 0 10.5"/><path d="M140.2 78.7c-3.1-11.3-29-9.6-28.4 3.9 1.3 10 31.4 7.4 28.4-3.9"/></svg>