<svg xmlns="http://www.w3.org/2000/svg" viewBox="0 0 1024 1024"><circle cx="512" cy="512" r="512" fill="#008aaa"/><path fill="#fff" d="M786.2 395.5h-80.6c-1.5 0-3-.8-3.7-2.1l-64.7-112.2a4 4 0 0 0-3.8-2.1h-264c-1.5 0-3 .8-3.7 2.1l-67.3 116.4-64.8 112.2a5 5 0 0 0 0 4.3l64.8 112.2 67.2 116.5a4 4 0 0 0 3.7 2.1h264.1q2.4 0 3.8-2.1L702 630.6a4 4 0 0 1 3.7-2.1h80.6c2.7 0 4.8-2.2 4.8-4.8V400.4a5 5 0 0 0-4.9-4.9M477.5 630.6l-20.3 35a4 4 0 0 1-1.3 1.3q-.9.5-1.9.5h-40.3q-2.2 0-3.3-2l-60.1-104.3-5.9-10.3-21.6-36.9q-.5-.7-.4-1.8 0-1 .5-1.8l21.7-37.6 65.9-114a4 4 0 0 1 3.3-2H454q1 0 2.1.5.8.4 1.3 1.3l20.3 35.2a4 4 0 0 1-.2 3.8l-65.1 112.8q-.4.8-.4 1.6t.4 1.6l65.1 112.7q1.3 2.4 0 4.4m202.1-116.7L658 550.8l-5.9 10.3L592 665.4q-1.1 1.9-3.3 2h-40.3q-1 0-1.9-.5t-1.3-1.3l-20.3-35a4 4 0 0 1-.1-4.2l65.1-112.7q.4-.8.4-1.6t-.4-1.6l-65.1-112.8a4 4 0 0 1-.2-3.8l20.3-35.2q.5-.8 1.3-1.3t2.1-.5h40.4q2.3 0 3.3 2l65.9 114 21.7 37.6q.5.9.5 1.8 0 .6-.5 1.6"/></svg>