<svg xmlns="http://www.w3.org/2000/svg" xml:space="preserve" width="115.3" height="114"><path d="M56.7.7a56.7 56.7 0 1 0 0 113.3A56.7 56.7 0 0 0 56.7.7m0 106c-9 0-16.2-6-16.2-13.3h32.3c0 7.4-7.2 13.3-16.1 13.3M83.3 89H30v-9.6h53.3zm-.2-14.6h-53l-.4-.6c-5.5-6.6-6.8-10-8-13.6L33 62.6s2.4.6 6 1.2q-5.3-6.2-5.5-14.2c0-11.4 8.7-21.3 5.6-29.3 3 .2 6.3 6.5 6.6 16.2a35 35 0 0 0 4.6-17.8c0-5.2 3.4-11.2 6.8-11.4-3 5 .8 9.3 4.3 20 1.2 4 1 10.9 2 15.2.4-9 2-22 7.6-26.5-2.5 5.7.4 12.8 2.3 16.2 3.2 5.5 5.1 9.6 5.1 17.5A22 22 0 0 1 73.2 64c3.7-.7 6.3-1.4 6.3-1.4l12.2-2.3s-1.8 7.2-8.6 14.2" style="fill:#e6522c;fill-opacity:1"/></svg>