<svg xmlns="http://www.w3.org/2000/svg" id="Layer_1" data-name="Layer 1" viewBox="0 0 360 360"><defs><clipPath id="clip-path"><path d="m241 115.7-7.2 163.8H126.2l-5.9-163.8" style="fill:none"/></clipPath><style>.cls-2{fill:#e9654b}.cls-3{fill:#b6cfea}.cls-6{fill:#ee794b}.cls-12{fill:#010101}.cls-13{fill:#fff}</style></defs><path d="M123.9 252s-2.4 7.2-6 10.7a11 11 0 0 1-8.4 3.6 139 139 0 0 1-18 3.6s8.4 1.2 18 2.4c3.6 0 3.6 0 6 1.2 6 0 8.4-3.6 8.4-3.6Zm109.9 0s2.4 7.2 6 10.7a11 11 0 0 0 8.4 3.6 139 139 0 0 0 18 3.6s-8.4 1.2-19.2 2.4c-3.6 0-3.6 0-6 1.2-7.2 0-8.3-3.6-8.3-3.6Z" class="cls-2"/><circle cx="180" cy="133.6" r="129.1" class="cls-3"/><circle cx="180" cy="133.6" r="124.3" style="fill:#e6f5f8"/><circle cx="180" cy="136" r="101.6" style="fill:#d0e8f0"/><g id="Body"><path d="M120.3 183.8s8.3 135.1 8.3 137.5c0 1.2 1.2 3.6-4.7 6s-25.2 7.2-25.2 7.2h28.7c13.2 0 13.2-10.8 13.2-13.2s3.6-53.8 3.6-53.8l1.2 63.4c0 2.4-1.2 6-9.6 8.4L112 344h27.5c16.7 0 16.7-10.7 16.7-10.7l3.6-53.8s1.2 53.8 1.2 59.8c0 4.7-3.6 8.3-16.7 10.7a398 398 0 0 1-19.2 4.8h31.1c15.6-1.2 18-12 18-12L200.4 209Z" class="cls-6"/><path d="M239.8 183.8s-8.3 135.1-8.3 137.5c0 1.2-1.2 3.6 4.7 6s25.1 7.2 25.1 7.2h-28.6c-13.2 0-13.2-10.8-13.2-13.2s-3.6-53.8-3.6-53.8l-1.2 63.4c0 2.4 1.2 6 9.6 8.4l23.9 4.7h-27.5c-16.7 0-16.7-10.7-16.7-10.7l-3.6-53.8s-1.2 53.8-1.2 59.8c0 4.7 3.6 8.3 16.7 10.7a398 398 0 0 0 19.1 4.8h-31c-15.6-1.2-18-12-18-12L159.7 209ZM241 118c0 33.6-27.5 59.9-59.8 59.9s-59.7-27.5-59.7-59.8 27.5-59.8 59.7-59.8S241 84.6 241 118.1" class="cls-6"/><circle cx="181.2" cy="150.4" r="106.4" class="cls-6" style="clip-path:url(#clip-path)"/><g style="opacity:.22"><path d="M237.4 183.8s7.2-63.3-2.4-87.2c-17.9-41.9-59.7-38.3-59.7-38.3s23.9 9.6 25 45.4c1.3 25.1 0 62.2 0 62.2Z" style="fill:#e34e3b"/></g></g><g id="Face"><g style="opacity:.5"><circle cx="156.1" cy="85.8" r="8.4" style="fill:#fbdfc3"/></g><path d="M201.6 207.7c0 20.4-9.6 33.5-21.6 33.5s-21.5-15.5-21.5-35.8c0 0 9.6 19 22.7 19s20.4-16.7 20.4-16.7" class="cls-12"/><path d="M201.6 207.7c0 13.2-9.6 20.4-21.6 20.4s-20.3-9.6-20.3-21.5c0 0 9.6 12 22.7 12s19.2-10.9 19.2-10.9" class="cls-13"/><circle cx="221.9" cy="151.6" r="37.1" class="cls-2"/><circle cx="138.2" cy="151.6" r="37.1" class="cls-2"/><circle cx="221.9" cy="151.6" r="28.7" class="cls-13"/><circle cx="135.8" cy="151.6" r="28.7" class="cls-13"/><circle cx="135.8" cy="148" r="8.4" class="cls-12"/><circle cx="221.9" cy="148" r="8.4" class="cls-12"/></g><path d="M48.5 165.9a5.6 5.6 0 0 1-6-6v-47.8a5.6 5.6 0 0 1 6-6 5.6 5.6 0 0 1 6 6v47.8a5.6 5.6 0 0 1-6 6m260.7 0a5.6 5.6 0 0 1-6-6v-47.8a5.6 5.6 0 0 1 6-6 5.6 5.6 0 0 1 6 6v47.8a5.6 5.6 0 0 1-6 6" class="cls-3"/><circle cx="139.4" cy="38" r="6" class="cls-13"/><path d="M96.4 199.4a4 4 0 0 1-3.6-1.2 102 102 0 0 1-21.6-63.4A107 107 0 0 1 85.6 81a117 117 0 0 1 38.3-38.2 5 5 0 0 1 6 1.2 5 5 0 0 1-1.3 6 97 97 0 0 0-49 83.6 94 94 0 0 0 20.3 58.6c1.2 1.2 1.2 4.8-1.2 6-1.1 1.2-1.1 1.2-2.3 1.2" class="cls-13"/><path d="M233.8 255.6V246c-16.7 9.6-34.6 19.1-56.1 19.1-24 0-39.5-10.7-55-19.1l1.2 9.6s17.9 19.1 55 19.1c34.6-1.2 55-19.1 55-19.1" class="cls-2" style="opacity:.25"/></svg>