<svg xmlns="http://www.w3.org/2000/svg" viewBox="0 0 982.4 1247.4"><defs><linearGradient id="a" x1="392.2" x2="609.2" y1="1236" y2="5.5" gradientUnits="userSpaceOnUse"><stop offset=".1" stop-color="#36baa2"/><stop offset=".3" stop-color="#61ddc8"/><stop offset=".5" stop-color="#7df3e1"/></linearGradient></defs><path d="M702.3 857.9c-57 54.6-134.4 84.7-218 84.7a360 360 0 0 1-186.6-53L0 708.8v71.9l316.1 191.9a325 325 0 0 0 168.2 47.7c72.5 0 142-25.6 193.3-74.7 37.5-36 58.2-79 57.3-120.8v-5.2a254 254 0 0 1-32.6 38.2m0-113.5c-57 54.6-134.4 84.7-218 84.7-65 0-129.5-18.3-186.6-53L0 595.5v71.8l316.1 191.9A325 325 0 0 0 484.3 907c72.5 0 142-25.6 193.3-74.8 37.5-35.9 58.2-79 57.3-120.8v-5.3a252 252 0 0 1-32.6 38.3m0 227c-57 54.6-134.4 84.7-218 84.7-65 0-129.5-18.3-186.6-53L0 822.4v71.9L316.1 1086a325 325 0 0 0 168.2 47.8c72.5 0 142-25.6 193.3-74.8 37.5-35.9 58.2-79 57.3-120.8V933a254 254 0 0 1-32.6 38.3Zm0 113.5c-57 54.6-134.4 84.7-218 84.7-65 0-129.5-18.4-186.6-53L0 935.9v71.8l316.1 191.9a325 325 0 0 0 168.2 47.8c72.5 0 142-25.6 193.3-74.8 37.5-36 58.2-79 57.3-120.8v-5.2a254 254 0 0 1-32.6 38.2Zm249.5-498.6-5.9 6a283 283 0 0 1-64.8 45.7 279 279 0 0 1-110.4 29.6h-.2v77.7h.2c54.3-3.5 108-24.3 150.6-65.2q3.4-3.3 6.6-6.8A239 239 0 0 0 951 646a185 185 0 0 0 18.3-31.4 141 141 0 0 0 12.6-47.8q.5-5.4.5-10.8v-6.4q-3.1 4.7-6.6 9.4a284 284 0 0 1-24 27.3m0-113.4q-2.8 3-6 6a289 289 0 0 1-64.6 45.7 276 276 0 0 1-76.4 25.3 287 287 0 0 1-41.3 4.6q2.2 7 3.7 14.3a155 155 0 0 1 3.3 34.9v28.1h.2a245 245 0 0 0 73.7-16.2 236 236 0 0 0 76.8-49q3.4-3.3 6.6-6.8a238 238 0 0 0 23.2-27.2 184 184 0 0 0 18.3-31.4 141 141 0 0 0 12.6-47.9q.5-5.4.5-10.8v-6q-3.1 4.5-6.5 9a285 285 0 0 1-24 27.4m0 226.9-5.9 6a274 274 0 0 1-175.2 75.3h-.1v77.6c54.3-3.4 108-24.2 150.6-65a215 215 0 0 0 48-65.6 141 141 0 0 0 12.6-47.8q.5-5.4.6-10.8V663l-6.6 9.4a283 283 0 0 1-24 27.3M770.7 894.6v77.6c54.3-3.5 108-24.2 150.6-65.1 40.7-39 61.5-81.8 61-124.1v-6.4a277 277 0 0 1-36.4 42.7 274 274 0 0 1-175.2 75.3m107.6-712.3L578 0 228 335.4 0 553.8l316.1 191.9a325 325 0 0 0 168.2 47.8c72.5 0 142-25.7 193.3-74.8 55.8-53.5 74.3-122.6 40-180.1a142 142 0 0 0-19.9-25.8A260 260 0 0 0 754 519h.4a248 248 0 0 0 90.2-16.9 236 236 0 0 0 76.8-49l6.7-6.7a239 239 0 0 0 23-27.2 184 184 0 0 0 18.3-31.4 142 142 0 0 0 12.7-47.7c4.3-56.4-29-112.6-103.7-157.9m-289 475.2c-56.2 53.9-146.7 61.8-220.3 17.2L150.3 541.9l196.3-188.2 222.4 135c80.2 48.6 75.8 115.7 20.3 168.8Zm240.5-261.3a177 177 0 0 1-214.5 22l-205.6-125 187.5-179.7 202 122.6c75.4 45.8 85.2 107.8 30.6 160.1" style="fill:url(#a)"/></svg>