<svg xmlns="http://www.w3.org/2000/svg" id="E" viewBox="0 0 1072.6 787.6"><defs><style>.cls-1{fill:#eceded}.cls-1,.cls-2,.cls-3{isolation:isolate;stroke-width:0}.cls-2{fill:#5583ab}.cls-3{fill:#12365e}</style></defs><path d="M567.1 154.3 545 85a24 24 0 1 0-14.7 0L508 154.3zM939.1 598v-2.8a48 48 0 0 0-34-46c-68.8-20.7-218.7-30.9-368.8-30.9s-300 10.2-368.8 30.8a48 48 0 0 0-34 46.1v2.8a80 80 0 0 0 23.7 52.8l-7.4 8.7a7.4 7.4 0 0 0-.2 9.3c8.5 11 30.9 28.4 62.5 32.2 3.9.5 7.4-2.3 8-6.1l1.8-10a548 548 0 0 0 82.5 22.2l-3.7 6.6c-1.7 3.1-.8 7 2.2 9 21.7 14.6 59.7 14.6 76.3 13.9a6.8 6.8 0 0 0 6.3-8.4l-2.4-9.6c29.8 3.2 60.8 5.3 92.2 6.3a59 59 0 0 0-6.9 11.8c-1.3 3.7 1.2 10.8 10.6 11.3s57.3 1.6 57.3 1.6 47.9-1 57.3-1.6c9.4-.5 11.9-7.6 10.6-11.3a59 59 0 0 0-7-11.8q47.4-1.5 92.3-6.3l-2.4 9.6c-1 4.1 2 8.2 6.3 8.4 16.6.7 54.6.7 76.3-13.9 3-2 4-5.9 2.2-9l-3.7-6.6a548 548 0 0 0 82.5-22.1l1.7 9.9a7.4 7.4 0 0 0 8 6.1 97 97 0 0 0 62.6-32.2c2.2-2.7 2-6.6-.2-9.3l-7.4-8.7a80 80 0 0 0 23.8-52.8Z" class="cls-3"/><path d="M645.4 156.6v65H429.7v-65c0-6.2 3.7-11.7 9.4-14.1 38.9-16.6 158.1-16.4 196.8 0 5.8 2.4 9.5 8 9.5 14.1" class="cls-3"/><path d="M645.4 182.6v32.5H429.7v-32.5c24.4-24.3 191.7-24 215.7 0" class="cls-1"/><path d="M536.3 237.3V632s-329.2 2-370.6-63.5c-2.8-4.2 10.1-27.8 31.4-60.6a2399 2399 0 0 1 152-204.3 514 514 0 0 1 52.1-55.4s34-10.9 135-10.9" class="cls-2"/><path d="M401.2 318.6c-6.2 11.8-104 199.6-107 206.4-2.8 6.8-8.5 8.2-17.1 7a354 354 0 0 1-80-24v-.1a2399 2399 0 0 1 152-204.3s32.2-2.9 48.7-2.9c7.2 0 9.6 6.1 3.4 18M536.3 237.3V632s329.2 2 370.6-63.5c2.8-4.2-10.1-27.8-31.5-60.6a2399 2399 0 0 0-152-204.3 514 514 0 0 0-52-55.4s-34-10.9-135.1-10.9" class="cls-1"/><path d="M671.4 318.6c6.2 11.8 104 199.6 106.9 206.4s8.6 8.2 17.2 7c8.6-1.3 51.7-10.3 80-24v-.1a2399 2399 0 0 0-152-204.3h-.1s-32.2-2.9-48.7-2.9c-7.1 0-9.6 6.1-3.3 18M536.3 164.5V211l-106.6 4v-32.4s16.1-18.1 106.6-18.1" class="cls-2"/><path d="M671.4 248.2c-59.7-15.2-220.2-13.8-270.2 0v-15.6c0-8.5 5.7-16 13.9-18 54.7-13.7 184.7-13.2 242 .3 8.4 2 14.3 9.5 14.3 18.1z" class="cls-3"/></svg>