<svg xmlns="http://www.w3.org/2000/svg" viewBox="0 0 512 512"><!--! Font Awesome Free 6.3.0 by @fontawesome - https://fontawesome.com License - https://fontawesome.com/license/free (Icons: CC BY 4.0, Fonts: SIL OFL 1.1, Code: MIT License) Copyright 2023 Fonticons, Inc.--><path fill="#091836" d="M0 224c0 53 43 96 96 96h47.2L290 202.5a48 48 0 0 1 73 59L333.7 320H416a96 96 0 0 0 0-192h-1.6a80 80 0 0 0-139.2-68 112 112 0 0 0-209.3 72.8A96 96 0 0 0 0 224m330.1 3.6a16 16 0 0 0-20.1-.1l-160 128a16 16 0 0 0 10 28.5h70.1l-52.4 104.8c-3.4 6.7-1.6 14.9 4.3 19.6s14.2 4.7 20.1.1l160-128a16 16 0 0 0-10-28.5h-70.2l52.4-104.8a16 16 0 0 0-4.2-19.6"/></svg>