<svg xmlns="http://www.w3.org/2000/svg" viewBox="0 0 576 512"><!--! Font Awesome Free 6.3.0 by @fontawesome - https://fontawesome.com License - https://fontawesome.com/license/free (Icons: CC BY 4.0, Fonts: SIL OFL 1.1, Code: MIT License) Copyright 2023 Fonticons, Inc.--><path fill="#091836" d="M0 80a48 48 0 0 1 48-48h96a48 48 0 0 1 48 48v16h192V80a48 48 0 0 1 48-48h96a48 48 0 0 1 48 48v96a48 48 0 0 1-48 48h-96a48 48 0 0 1-48-48v-16H192v16q0 2.6-.3 5L272 288h96a48 48 0 0 1 48 48v96a48 48 0 0 1-48 48h-96a48 48 0 0 1-48-48v-96q0-2.6.3-5L144 224H48a48 48 0 0 1-48-48z"/></svg>