<svg xmlns="http://www.w3.org/2000/svg" version="1.0" viewBox="0 0 60 60"><path d="M57.3 32.3a36 36 0 0 1-2 11.9q-.6 1.4-1.2 2t-1.4.7-1.6-.6a2 2 0 0 1-.7-1.5l.5-1.7 1.6-6.4a28 28 0 0 0-.2-9.7 45 45 0 0 0-1.9-7.2q0-.9.7-1.4.6-.6 1.6-.6t1.4.7q.6.6 1.1 2 .9 2.3 1.5 5.3t.6 6.5M34.9 37l4.2-4.6-2.6-2.8-1.7-2-.2-1q0-1 .7-1.8.7-.7 1.7-.7.8 0 1.4.2t1 1l2.8 3.3 2.6-3.3q.6-.7 1.1-1l1.4-.2q1 0 1.7.7.9.9.7 1.9 0 .5-.2.8-.1.4-.5.8l-1.2 1.3-2.6 2.8 4.2 4.6q.5.4.7 1 .3.5.3 1.2a2.4 2.4 0 0 1-2.5 2.5l-1.2-.3-1-1-3.5-4.1-3.5 4.1-1 1a2 2 0 0 1-1.3.3q-1 0-1.8-.7-.7-.6-.7-1.8 0-.7.2-1.2zM27 32.3a38 38 0 0 1 2-11.8q.6-1.5 1.1-2 .5-.7 1.5-.7t1.6.6q.8.7.6 1.4l-.7 2.4a45 45 0 0 0-1.7 10.1 29 29 0 0 0 1 8l1.4 4.5a2 2 0 0 1-.7 1.5q-.6.6-1.5.6t-1.5-.7-1.1-2a30 30 0 0 1-2-11.9" style="stroke-width:1pt;fill:#091836"/><path d="M21.7 14.4c-11.7 3.3-5 27.4-16 30.6m1-18.4H23" style="stroke-linejoin:round;stroke:#091836;stroke-linecap:round;stroke-width:5;fill:none"/></svg>