<svg xmlns="http://www.w3.org/2000/svg" viewBox="0 0 640 512"><!--! Font Awesome Free 6.3.0 by @fontawesome - https://fontawesome.com License - https://fontawesome.com/license/free (Icons: CC BY 4.0, Fonts: SIL OFL 1.1, Code: MIT License) Copyright 2023 Fonticons, Inc.--><path fill="#091836" d="M305.5 135.3a22 22 0 0 0 6.2-25 171 171 0 0 0-7.6-15.5l-3.1-5.4q-4.5-7.5-9.8-14.6a22 22 0 0 0-24.7-7.1L238.3 77q-16.2-13.4-36.2-20.9l-6.1-29a22 22 0 0 0-18.5-17.8Q167.6 8 157.4 8h-.7q-10.2 0-20.1 1.2A22 22 0 0 0 118.1 27L112 56.1Q92 63.7 75.8 77l-28.3-9.2c-9-3-19-.5-24.7 7.1q-5.2 7-9.9 14.6l-3 5.3q-4.2 7.5-7.6 15.6a22 22 0 0 0 6.2 25l22.2 19.8a129 129 0 0 0 0 41.7L8.5 216.7a22 22 0 0 0-6.2 25 187 187 0 0 0 7.6 15.6l3 5.2q4.5 7.6 9.9 14.6a22 22 0 0 0 24.7 7.1l28.2-9.3q16.2 13.4 36.2 20.9l6.1 29.1a22 22 0 0 0 18.5 17.8 172 172 0 0 0 40.8 0 22 22 0 0 0 18.5-17.8l6.1-29.1q20-7.6 36.2-20.9l28.2 9.3c9 3 19 .5 24.7-7.1q5.3-7 9.8-14.6l3.1-5.4a171 171 0 0 0 7.6-15.5c3.7-8.7.9-18.6-6.2-25l-22.2-19.8a131 131 0 0 0 0-41.8l22.2-19.8zM109 176a48 48 0 1 1 96 0 48 48 0 1 1-96 0m392.7 324.5a22 22 0 0 0 25 6.2 171 171 0 0 0 15.5-7.6l5.4-3.1q7.5-4.5 14.6-9.8a22 22 0 0 0 7.1-24.7l-9.3-28.2q13.4-16.2 20.9-36.2L610 391a22 22 0 0 0 17.8-18.5 172 172 0 0 0 0-40.8 22 22 0 0 0-17.8-18.5l-29.1-6.2q-7.6-20-20.9-36.2l9.3-28.2c3-9 .5-19-7.1-24.7q-7-5.2-14.6-9.9l-5.3-3q-7.5-4.2-15.6-7.6a22 22 0 0 0-25 6.2l-19.8 22.2a131 131 0 0 0-41.8 0l-19.8-22.2a22 22 0 0 0-25-6.2 187 187 0 0 0-15.6 7.6l-5.2 3a144 144 0 0 0-14.6 9.9 22 22 0 0 0-7.1 24.7l9.3 28.2Q348.7 287 341.2 307l-29.1 6a22 22 0 0 0-17.8 18.5 172 172 0 0 0 0 40.8 22 22 0 0 0 17.8 18.5l29.1 6.1q7.6 20 20.9 36.2l-9.3 28.2c-3 9-.5 19 7.1 24.7q7 5.3 14.6 9.8l5.4 3.1a171 171 0 0 0 15.5 7.6c8.7 3.7 18.6.9 25-6.2l19.8-22.2a131 131 0 0 0 41.8 0l19.8 22.2zM461 304a48 48 0 1 1 0 96 48 48 0 1 1 0-96"/></svg>