<svg xmlns="http://www.w3.org/2000/svg" xml:space="preserve" viewBox="0 0 122.9 118.8"><path d="M112.1 26.4a9 9 0 0 0-4.5-5.2L64.8.7Q63-.1 61.3 0c-1.8.1-2.4 0-3.5.3l-43 20.6a8 8 0 0 0-4.1 5.2L0 72.4Q-.4 76 1.7 79l29.6 36.7q2.7 2.6 6.5 3H85a7 7 0 0 0 6.5-3L121 79q2.1-3 1.7-6.7z" style="fill:#326de6"/><path d="M105.6 69.5q-.2 0-.3-.2l-.5-.1-1.7-.2-.9-.1h-.1q-2.4-.2-4.8-.9-.7-.1-1-1 .2 0 0 0l-1.1-.2q.8-6.1-.6-12.4-1.5-6.1-4.9-11.5l.9-.8v-.2q0-.7.4-1.2 1.8-1.7 4-2.9l.7-.4 1.6-.8.4-.3V36c1.3-1 1.6-2.6.6-3.9q-.8-1-2-1-1 0-2 .7l-.1.2-.4.2-1.1 1.3-.6.6q-1.5 1.7-3.5 3l-.9.3-.5-.1H87l-1 .7-3.6-3.4a36 36 0 0 0-18.3-7.3v-1.1.1q-.7-.5-.8-1 0-2.4.3-4.9v-.1l.1-.9.3-1.6v-.9a3 3 0 0 0-2.4-3q-1.3 0-2.4 1-.8 1-.8 2v.7q0 .9.3 1.7l.1.8v.2q.4 2.2.3 4.7-.2.8-.7 1.2v.3l-.2 1-4.7.8a33 33 0 0 0-17.3 9.8l-.9-.6-.7.2-.8-.3a26 26 0 0 1-3.5-3.2q-.2-.4-.6-.6l-1-1.2-.5-.3-.1-.2q-1-.6-2-.7-1.4 0-2 1a3 3 0 0 0 .6 4h.1l.4.4 1.6.8.8.4q2.1 1.3 4 2.8.4.6.4 1.3v-.1l.8.8-.4.7c-4.4 6.9-6.2 15-5 23l-1 .3q-.1.3-.2.2-.2.6-1 1-2.2.6-4.7.8l-.9.1-1.7.2-.5.1q-.2 0-.3.2a2.7 2.7 0 0 0-2.3 3.2 2.6 2.6 0 0 0 2.8 2q.4 0 .7-.2l.2-.1q.2-.2.5 0l1.6-.6.8-.3h.2q2.2-.8 4.6-1.2h.2q.6 0 1 .4l.2.1 1.3-.1a34 34 0 0 0 15.3 19l-.7 1h.1q.4.8.2 1.5-1 2.2-2.3 4v.2l-.5.7-1 1.4-.3.4-.1.2a3 3 0 0 0 1 3.8l1 .3q1.9-.1 2.7-1.7l.2-.2.2-.4.6-1.5.3-.9q.7-2.3 1.8-4.3.5-.7 1.1-.9l.2-.1.5-1.1A33 33 0 0 0 69 95q2.4-.5 4.5-1.2l.6 1h.1q.8.3 1.2 1 1.1 2 1.8 4.3v.1l.3.9.5 1.5.3.4.2.2q.8 1.6 2.6 1.7.6 0 1.1-.3 1-.5 1.3-1.6.2-1-.1-2-.1-.3-.2-.2 0-.3-.3-.4-.3-.8-1-1.4 0-.4-.5-.7V98q-1.5-2-2.2-4.1-.3-.7.1-1.4l.1-.2-.4-1A35 35 0 0 0 94.2 72l1.1.2q.3-.1.2-.2.4-.4 1-.4h.2q2.4.4 4.5 1.3h.2l.8.2q.8.5 1.5.7l.6.2.3.1q.3.3.7.2a3 3 0 0 0 2.8-2 3 3 0 0 0-2.5-3M65 65l-3.8 1.8-3.8-1.8-1-4 2.7-3.5h4.2L66 61zm22.9-9q1 4.5.5 8.8L75.1 61a2.3 2.3 0 0 1-1.1-3.8l10.5-9.5q2.3 3.8 3.4 8.3m-7.6-13.5-11.5 8.1c-1 .6-2.4.4-3.1-.5q-.4-.4-.4-1l-.9-14.2Q74 36 80.3 42.5m-25.4-7.2 2.8-.6-.7 14c0 1.3-1.2 2.3-2.4 2.3l-1.1-.2-11.7-8.3q5.5-5.3 13-7.2M37.7 47.7l10.4 9.2c1 .9 1.1 2.3.3 3.3q-.4.5-1.1.7l-13.6 3.9c-.5-5.9 1-12 4-17.1m-2.4 23.7 14-2.4c1 0 2.2.7 2.3 1.9q.3.7-.1 1.4L46 85.2a28 28 0 0 1-10.7-13.8m32 17.4a29 29 0 0 1-15-.7l7-12.5a2 2 0 0 1 2.7-.5q.6.3 1.2 1l6.7 12.2zm17-12.2a27 27 0 0 1-8.4 8.5l-5.4-13.3c-.3-1 .2-2.2 1.2-2.6q.7-.3 1.3-.3l14 2.4a21 21 0 0 1-2.6 5.3" style="fill:#fff"/></svg>