<svg xmlns="http://www.w3.org/2000/svg" width="140" height="140" fill="none"><g clip-path="url(#a)"><path fill="#FF6740" fill-rule="evenodd" d="m130.5 0 .4-.4-7.5-6.7-3.3 3.8-3 3.3H0v7.8L-6.9 12l2.6 4.3L0 22.9v93.4h-5.1l.2 10H0V140h140V51.3a174 174 0 0 0 11-18v-.2l-4.5-2.1 4.6 2 2-4.5-9.1-4.1-2 4.5-.1.2-1.9 3.6V0zm0 0h-13.4a165 165 0 0 1-82 47.8A165 165 0 0 1 4.3 11L1.6 6.8 0 7.8v15a175 175 0 0 0 86.7 66.7A165 165 0 0 1 0 116.3v10h.1a175 175 0 0 0 139.9-75V32.7l-4.2 6.8v.1a165 165 0 0 1-39 42.7 165 165 0 0 1-52.2-26.7 174 174 0 0 0 83-52.3z" clip-rule="evenodd"/></g><defs><clipPath id="a"><path fill="#fff" d="M0 28A28 28 0 0 1 28 0h84a28 28 0 0 1 28 28v84a28 28 0 0 1-28 28H28a28 28 0 0 1-28-28z"/></clipPath></defs></svg>