<svg xmlns="http://www.w3.org/2000/svg" xml:space="preserve" viewBox="0 0 652 652"><path d="M404.7 318.4s-1.6-.5-1.6-2.1q.1-1.4 1-2.1c36.5-22.9 58.9-64.6 58.9-113C463 129.3 404.7 71 332.8 71H178.6c-9.9 0-18.2 8.3-18.2 18.2v463.5c0 9.9 8.3 18.2 18.2 18.2H351c71.9 0 130.2-58.3 130.2-130.2 0-56.2-29.7-104.1-76.5-122.3m-68.3 159.9c0 2.1-2.1 4.2-4.2 4.2h-6.8a4.5 4.5 0 0 1-4.2-4.2v-44.8h-40.6v44.8c0 2.1-2.1 4.2-4.2 4.2h-6.8a4.5 4.5 0 0 1-4.2-4.2V373.6c0-2.1 2.1-4.2 4.2-4.2h6.8c2.1 0 4.2 2.1 4.2 4.2V420h40.6v-46.4c0-2.1 2.1-4.2 4.2-4.2h6.8c2.1 0 4.2 2.1 4.2 4.2zm0-310.4c0 2.1-2.1 4.2-4.2 4.2h-52.1v36.5h44.3c2.1 0 4.2 2.1 4.2 4.2v4.7c0 2.1-2.1 4.2-4.2 4.2h-44.3v46.4c0 2.1-2.1 4.2-4.2 4.2h-6.8a4.5 4.5 0 0 1-4.2-4.2V163.2c0-2.1 2.1-4.2 4.2-4.2h63c2.1 0 4.2 2.1 4.2 4.2v4.7z" style="fill:#697d91"/><path d="M332.3 369.4h-6.8a4.5 4.5 0 0 0-4.2 4.2V420h-40.6v-46.4c0-2.1-2.1-4.2-4.2-4.2h-6.8a4.5 4.5 0 0 0-4.2 4.2v104.7c0 2.1 2.1 4.2 4.2 4.2h6.8c2.1 0 4.2-2.1 4.2-4.2v-44.8h40.6v44.8c0 2.1 2.1 4.2 4.2 4.2h6.8c2.1 0 4.2-2.1 4.2-4.2V373.6c-.1-2.1-2.2-4.2-4.2-4.2m0-210.4h-63a4.5 4.5 0 0 0-4.2 4.2v104.7c0 2.1 2.1 4.2 4.2 4.2h6.8c2.1 0 4.2-2.1 4.2-4.2v-46.4h44.3c2.1 0 4.2-2.1 4.2-4.2v-4.7c0-2.1-2.1-4.2-4.2-4.2h-44.3V172h52.1c2.1 0 4.2-2.1 4.2-4.2v-4.7c-.2-2-2.3-4.1-4.3-4.1" style="fill:#fac300"/></svg>