<svg xmlns="http://www.w3.org/2000/svg" xml:space="preserve" style="fill-rule:evenodd;clip-rule:evenodd;stroke-linejoin:round;stroke-miterlimit:2" viewBox="0 0 284 44"><path d="M108.8 54.3a7 7 0 0 0-5.3-1.9 13 13 0 0 0-6.2 1.5 17 17 0 0 0-8.3 11 35 35 0 0 0-1 8.3q0 5 2.1 7.8 2.2 3 6.4 2.8 3.6 0 6.3-1.2 2.8-1.2 4.6-2.7a9 9 0 0 0 .8-3.5V76l-.3.2a20 20 0 0 1-9.1 2.9q-5 0-5-7.4V70q5.1-.2 8.4-1.2a16 16 0 0 0 5.2-2.4A8 8 0 0 0 110 63q.7-1.8.7-3.7 0-3-2-5m-3.8 7.6q-.3 1-1.5 2-1.2.8-3.4 1.5a20 20 0 0 1-5.9.7l.7-3.2q.4-1.5 1.3-3a8 8 0 0 1 2.7-2.8q1.5-1 3.5-1 1.5 0 2.3 1t.7 2.6q0 1.1-.4 2.2M80.8 49a3 3 0 0 0 2.4-1q1-1 1-2.9 0-1.6-1-2.6t-2.5-1a3.5 3.5 0 0 0-3.5 3.6q0 3.8 3.5 3.8m-1.3 29.8v-.4l3-25.2-1.3-.3h-1.3a13 13 0 0 0-6.3 1.4 4 4 0 0 0-.8 1.7l-.3 1.6v.2l4.4-.5-3.1 22q0 .8.6 2.1.7 1.5 1.6 2.5h1.7q3-.4 5.8-1.4.5-.7.8-1.8l.3-1.8v-.2l-4.9.5zm-15.1-.1V78l4.6-37.6h-.1l-1.3-.2h-1.3a13 13 0 0 0-6.2 1.4 4 4 0 0 0-.8 1.6L59 45v.1l4.4-.4-1.2 9q-1-.6-2.3-.8-1.2-.4-2.6-.4a13 13 0 0 0-6.6 1.7q-3 1.8-5 4.6a21 21 0 0 0-3 6.5q-1 3.7-1 7.6 0 3 .6 5a10 10 0 0 0 1.7 3.5q1.2 1.2 2.7 2 1.4.5 3.3.5 2.3 0 4.8-1a10 10 0 0 0 4.4-3.5q.4 2.3 1.6 4.5h1.8q3-.5 5.7-1.4h.1q.4-.7.7-1.8l.3-1.7v-.2l-4.8.4zm-17-9.4q.4-3 1.4-6 .5-1.5 1.2-2.5 1.2-2 3.1-3.3a8 8 0 0 1 4.4-1.3 9 9 0 0 1 4.1 1L59.2 75a9 9 0 0 1-3 3.2 7 7 0 0 1-3.7 1q-2.4 0-3.8-1.6-1.5-1.7-1.5-5.6l.2-2.7m269 13.9h-8.7v-30h7l1.2 3c1.2-2 3.1-3.6 7.7-3.6h1.4l-1 7.4h-2a6 6 0 0 0-5.7 3.6zm-134-23q-4.6 0-4.8 8 0 8 4.8 8 4.5 0 4.7-8 0-8-4.7-8m0 23.7c-10.1 0-13.7-8.5-13.7-15.7 0-11.6 7-15.7 13.7-15.7S196 56.6 196 68.2 189 84 182.4 84m26.8-8.3q.8.7 3.2.7c2.4 0 5.6-.9 5.6-8.6q0-7.5-4.8-7.6-2.2 0-4 1.8zm2.7 8.2c-6.5 0-9.8-2.3-11.2-3.3l-.2-.1v-39l8.7-1.1v15a10 10 0 0 1 7.1-2.9c6.8 0 10.6 5.2 10.6 14.2q0 17.2-15 17.2m24.3-33.4q-4.3 0-4.5-4.3v-.3q0-4.2 4.5-4.3 4.3 0 4.4 4.3v.3q-.2 4.2-4.4 4.3m4.3 32.7h-8.7v-30h8.7zm6.3 0h8.8V40.4l-8.8 1.2zm19.5-32.7q-4.4 0-4.5-4.3v-.3q.2-4.2 4.5-4.3t4.4 4.3v.3q0 4.2-4.4 4.3m4.3 32.7H262v-30h8.7zm22.6-8.7a4 4 0 0 1-3.9 1.7c-2.3 0-5-.9-5-7.9q0-8.3 6-8.3 1.7 0 2.9.5zm8.5-19.6c-1.2-.6-4.6-2.4-10.4-2.4-10.1 0-16 5.9-16 16.1 0 9.9 4.2 15.3 11.6 15.3 2.4 0 5-.8 6.5-2.5l.3-.5 1 2.2h7.2V55zM153.3 41.6l-10.1 27.3-10.1-27.3h-9.4L121 83.2h8.8l1.3-22.6 8.7 22.6h6.6l8.7-22.6 1.3 22.6h8.8l-2.7-41.6z" style="fill:#da2323;fill-rule:nonzero" transform="translate(-41.7 -40.2)"/></svg>