<svg xmlns="http://www.w3.org/2000/svg" id="Ebene_2" viewBox="0 0 260.3 69.2"><defs><style>.cls-1{fill:#f07c0e}</style></defs><g id="Ebene_1-2"><path d="M30.2 69.2q-.4 0-.7-.2L.6 52.4Q.1 52 0 51.2V18q0-.8.7-1.2L29.5.2q.7-.4 1.4 0l28.8 16.6q.7.4.7 1.2v33.2q0 .8-.7 1.3L30.9 69q-.3.3-.7.2M3 50.4 30.2 66l11.5-6.6L15.1 44q-.7-.4-.7-1.3V27.2L2.9 20.5zM17.2 42l27.4 15.8 13-7.4V18.9L30.1 3 4.3 18l12.2 7q.8.4.8 1.2z" class="cls-1"/><path d="m16.5 60.7-1.4-2.5L43 42V26.3q0-.8.8-1.2l14.3-8.3 1.5 2.5L46 27.2v15.6q0 .9-.7 1.3z" class="cls-1"/><path d="M74.6 21.1q-2.3 0-2.3-2.3c0-2.3.8-2.2 2.3-2.2h24q2.3 0 2.3 2.2c0 2.2-.7 2.3-2.3 2.3zm.3 31q-2.3 0-2.3-2.4c0-2.4.8-2.2 2.3-2.2h24q2.3 0 2.3 2.2c0 2.2-.8 2.3-2.3 2.3zm2.2-1.8-4-2.2 24-30.6 3.4 2.8zm46.5 2q-5.1 0-9.2-2.3a17 17 0 0 1-6.5-6.4q-2.3-4-2.3-9.3c0-5.3.8-6.6 2.4-9.3q2.2-4 6.4-6.4 4-2.4 9.2-2.3c5.2 0 6.6.8 9.3 2.3a17 17 0 0 1 6.3 6.4 19 19 0 0 1 0 18.6 17 17 0 0 1-15.6 8.7m0-4.5a13 13 0 0 0 6.8-1.7q3-1.8 4.6-4.8 1.7-3 1.7-7c0-4-.5-4.9-1.7-7a12 12 0 0 0-11.4-6.5 13 13 0 0 0-11.4 6.6q-1.7 3-1.7 7c0 4 .5 4.8 1.7 6.9q1.7 3 4.7 4.8a13 13 0 0 0 6.7 1.7m41.9 4.5q-5.2 0-9.3-2.3a17 17 0 0 1-6.4-6.4q-2.3-4-2.3-9.3c0-5.3.8-6.6 2.3-9.3q2.4-4 6.4-6.4 4.2-2.4 9.3-2.3c5.1 0 6.5.8 9.2 2.3a17 17 0 0 1 6.4 6.4 19 19 0 0 1 0 18.6 17 17 0 0 1-15.6 8.7m0-4.5a13 13 0 0 0 6.7-1.7q3-1.8 4.7-4.8t1.7-7c0-4-.6-4.9-1.7-7a12 12 0 0 0-11.4-6.5 13 13 0 0 0-11.4 6.6q-1.8 3-1.8 7c0 4 .6 4.8 1.8 6.9q1.7 3 4.7 4.8a13 13 0 0 0 6.7 1.7m41.8 4.5q-5.2 0-9.3-2.3a17 17 0 0 1-6.3-6.3q-2.3-4.2-2.3-9.4c0-5.2.7-6.6 2.1-9.3a16 16 0 0 1 14.8-8.7q5 0 8.6 2.2a15 15 0 0 1 5.7 6.2q2 3.9 2 9 0 1-.7 1.7t-1.6.6h-27.6v-4.2h28l-2.7 2q0-3.7-1.4-6.7a11 11 0 0 0-4-4.7q-2.7-1.6-6.3-1.6c-3.6 0-4.6.5-6.5 1.7a12 12 0 0 0-4.3 4.8q-1.5 3-1.5 7c0 4 .6 5 1.7 7q1.8 3 4.7 4.9 3 1.7 6.9 1.7a15 15 0 0 0 8.5-2.8q.7-.6 1.6-.7t1.6.5q.8.8.8 1.7t-.7 1.6a18 18 0 0 1-5.5 3q-3.3 1.2-6.3 1.2Zm37-1.3q-.9.4-1.8 0-.8-.1-1.4-1.2l-14.4-30q-.5-1-.1-1.7.3-.9 1.3-1.3t1.8-.2T231 18l14.2 30q.4 1 .3 1.7-.1.9-1.2 1.3m-7.2 16.4-1.1-.2q-2.3-1-1.3-3.1l21-46.2q.9-2 3-1.1 2.3.9 1.3 3L239 66q-.6 1.5-1.9 1.5" style="fill:#000"/></g></svg>