<svg xmlns="http://www.w3.org/2000/svg" role="img" viewBox="77 -5 100 100">
    <title>cncf-stacked-color-bg.svg</title>
    <style>svg {enable-background:new 0 0 263.1 159.1}</style>
    <path fill="#0086ff"
          d="M98.7 58.9H87.3v27h26.9V74.2H98.7V58.9zm57.8.1v15.2h-15.4v11.6H168v-27h-11.6l.1.2zM87.3 32h11.6l-.1-.1V16.7h15.4V5.1H87.3V32zm53.8-26.9v11.6h15.4V32H168V5c0 .1-26.9.1-26.9.1z"/>
    <path fill="#93eaff"
          d="M139.6 32l-15.4-15.4h16.9V5.1h-27v11.6L129.5 32h10.1zm-13.9 26.9h-10.1l12.7 12.7 2.5 2.6H114v11.6h27V74.1l-7.7-7.6-7.6-7.6zM156.5 32v16.8l-2.7-2.6-12.7-12.7v10.2l7.6 7.6 7.7 7.7H168V32h-11.5zm-42.4 15.3L98.9 32H87.3v26.8h11.5V42.1l15.4 15.4V47.3z"/>
</svg>
