<svg xmlns="http://www.w3.org/2000/svg" xml:space="preserve" width="5573.1" height="1990.2"><path fill="#F64060" d="M3283.7 1072.6c-7.6 11.6-12.5 19.5-17.8 27.2-49.9 71.4-105.8 136.6-182 181.7-102.3 60.4-213 85.3-328.5 60.3-59.2-12.9-114.4-46-170.1-72.5-13-6-20-6.2-31.4.5-47.8 28.3-94.4 60-145 81.9-90 38.9-184.7 60.7-282.6 34.8-61.3-16.2-114.4-50.8-162.3-92.4-34-29.4-36.2-29.4-70.7-1-62 51-133.6 83.9-208.5 111-93 33.8-188.8 54.5-286.8 64.2-119.6 11.8-230.5-8.5-311.5-106.8-64.8-78.8-82.2-170.1-42.5-265.1 43.5-104 93.7-205.3 141-307.7 24.6-53.4 49.3-106.7 73.2-160.4a91 91 0 0 0 6.6-32.2c1-20 5-42-18.1-54-23.7-12.3-51.6-10-68.9 11.9a559 559 0 0 0-57.1 88.5C1067 745.4 1015.3 849.1 963 952.6c-39.2 77.7-77.6 155.6-117.2 233-37.5 73.4-107.9 101.4-184.2 72.9a69 69 0 0 1-46.2-57.5c-6.2-41 7.3-77.6 21.8-114.3q47.8-120 95.5-240.3c17-43 34-86 50-129.4 11.1-30.4 14.5-62.6 1.4-92.4-10-23-29.9-39.5-57.7-37-30.4 2.6-54.3 18.5-65.8 46.7-40.3 99.5-79 199.7-118.6 299.5-47.4 119.4-94.1 239.2-143.5 357.8-18.3 43.9-45.9 83.8-92.3 102.5a213 213 0 0 1-75.4 15.8c-79 1-147.2-25.3-193.7-92.3C0 1264.3-9 1205 8.9 1142.2c16.5-58 33-116.1 50.4-174 16.5-54.8 34-109.3 51-164 16-50.9 30.9-102.2 48.1-152.6 34-99.3 61.4-201.5 115.2-292.6 36.8-62.3 96.5-96 164.9-116.9 71.5-21.8 132.4 5.7 193.5 36 23.2 11.6 46 23.9 69.8 33.9 33.1 13.9 63.4 5 90.2-16.7 21.9-17.9 44-35.7 64.2-55.4 50.5-49.3 159.5-58.5 212.8-1.1 12.3 13.2 26.8 24.3 40.3 36.3 28 24.7 39.5 27.2 71.8 9 76.7-43.4 156.2-37.4 234.4-9.6 45.3 16.1 72.5 54.7 89.8 100.3 25.5 67.2 14.8 132-10.7 195.2-47 116.1-98.2 230.6-144 347.1a2063 2063 0 0 0-69.7 212 191 191 0 0 0-.6 93.2c11.2 44.5 51.9 59 93 64.2 62.7 8 124.2-3.7 184.3-20.3a2052 2052 0 0 0 151.8-49.6c24.2-8.8 46.7-22.2 69.8-34 19.7-9.9 21.3-24.5 10.9-42.9-21.3-37.5-43.6-74.5-62.3-113.2-39.6-82-72.2-166.6-63.5-260 7.6-81.9 37.2-153 112.6-196 111.5-63.5 202-46 283.8 49 70.9 82 94.2 180.8 63.8 286.7-17 59.2-41.3 116.4-64.6 173.7-6.4 15.8-2.6 26 7.4 35.3a517 517 0 0 0 159.8 102c22.4 9.1 46 16 69.8 20.7 51 10.2 98.4-2 140.9-30.8 20.2-13.7 20.7-26.5 6.6-45.7-97.8-133.4-136.5-281.8-107.1-445 11-61 39.3-118.8 104.8-136.4 40.6-10.8 86.4-10.4 128.5-5 68.5 8.7 130.5 36 172.6 95 50.5 70.7 63.4 148.2 41.6 232.8-15.6 60.7-47.4 112.4-82.5 162.6-14 19.9-14.5 38.2 4.5 51.5 29.2 20.5 58.8 43 91.8 54.9 71.6 25.8 146 23.5 218.1.3 79-25.4 134.5-77.8 166.1-155.5 37.8-93 38.3-190.3 36.3-288-1.5-76.4-4.1-152.7-6.4-229.1-.8-27.3-5.2-28.9-31.2-23.6-68.5 13.9-137.3 26.1-206 38.7-21.7 4-43.6 6.6-65.3 10.5-47.2 8.5-86.1-11-88.8-66.2-2.7-55.6-10.8-111-16.5-166.6q-.5-4.6-.8-9.4c-3.2-65.3 12.6-100.9 91.1-98 81 3 162 5.6 243 9.9 39.8 2 53.8-8 56.4-47.5 2-30.7 3-61.4 4.8-92 3-46 13.4-57 60.1-55.1 28 1 56 6 83.3 12.1 38.5 8.7 58.6 35.7 61.3 74 2.1 31.3 1.2 63 .7 94.4-.4 22.2 6.5 34.2 31.5 36.7 72 7.3 143.7 17.3 215.6 25.9 33.9 4 53 17.7 57.5 43 8 43.8-1.5 73.8-34.6 85.7a1405 1405 0 0 1-141.9 41.3c-33.4 8.3-68 11.8-102.1 18-22.8 4.2-35.2 16.2-35 42 .8 126.7-2 253.6 1.6 380.3 2 66.4 12 133 40.2 195 23 50.4 62 70.2 116.3 61 79.7-13.3 152.8-41.3 216.5-91.7 35.3-28 58.5-62.3 60.3-109.6q4.8-129.7 12.5-259.5a269 269 0 0 1 12.6-74c4.7-13 21.6-30 33.4-30.3 65-2 130.6-2.6 195.5 3 40.7 3.5 68.7 41.6 66.6 84.8-3 60.4-10.8 120.6-16.5 181-7.1 74.3-13.7 148.8-21.6 223.1-8 75.2 52.2 112.5 111.7 113.2 50 .6 79.4-18 100.6-70.8 22-54.7 35-114 44.5-172.5 13.4-83 19.8-167.2 29.7-250.8 4-34.1 25.3-60.4 51.8-66 30.7-6.7 70.9 5.8 80.9 33.8 8.4 23.4 6.5 52 3.6 77.7-10.9 95.2-26.5 190-35.4 285.3-5.5 58.6 27.4 100.3 84.3 117.7a501 501 0 0 0 87.2 18.8c51.6 5.9 88.1-31.8 99-90.4 9-49.4 10.3-100.1 14.7-150.3 5.2-59.6 6-119.9 16.1-178.6 15-86.9 71.1-165.7 175.1-191a531 531 0 0 1 187.7-9.8c95 10.9 194.5 75.5 224.9 184.7 23 83 13.9 163.2-13.3 243-31.4 92.5-88.9 164.6-169.2 219.5-7.4 5.1-11.7 14.7-17.4 22.2 10 4.5 20.2 13 30.3 12.8 96-1.5 186.4-23.4 269.3-73.7 18.7-11.3 39-19.9 58.8-29.3 18.1-8.6 28.8 1.6 23.8 17.2-8.5 26.3-18.6 54-35.4 75.1-71 89.8-167.8 132.8-279.8 140.4-47.6 3.1-95.8-3.2-143.7-5.8-36.1-2-72.2-5.2-108.3-7.7-18.3-1.2-29 6.5-33.5 25.5-28.8 118.7-44 239.5-59 360.5a1978 1978 0 0 1-41.8 226.8c-9.9 40.4-41.5 68.3-85.2 75.4-26.2 4.2-45.5-7.1-54.3-31.5a253 253 0 0 1-16-63.6 1488 1488 0 0 1 9-318.1c7.1-53.9 11.9-108 18-161.9 4.4-37.5 10-74.9 13.6-112.5 2.7-30.4-4.2-37.5-33.3-43.3-60-12-120.2-23.8-180.1-37-40.7-9-72.4 5.3-100 33.3-36.6 37.3-77 69.7-125 90.6-58 25.3-119.6 20-179.2 10.6-86-13.8-154.8-59-203.7-131.6-15.2-22.6-26.2-48-38-72.5-6.7-13.8-12.7-19.1-28.8-11-57.2 29.2-114.2 59.1-173.3 84-65.8 27.8-135.5 37.6-205.4 18.1-68.2-19-120.4-62.9-163.8-117.7-11.7-14.7-23.1-29.5-41.2-52.6M5246.2 800c-.8-9.5-.8-19-2.3-28.2-8.8-53.7-62.7-77.8-106.1-45.4a217 217 0 0 0-51 54.4c-44.7 68.6-64.9 147.2-85 225.4a222 222 0 0 0-8.3 60.5c.8 37.6 22.8 48.6 54.3 28.3 65.2-42 113.6-100.5 154.4-165.4 24.8-39.4 45-81 44-129.6m-2560.8 37.8c.6-37.3-8.1-71.8-35.6-98.6a54 54 0 0 0-56.1-14.6c-26.5 8.2-40.9 27.9-42.8 60.5-3.9 63.2 23.2 117.5 51.2 171 14.4 27.5 28 26.6 46.6 1.2 26-35.6 36.1-76 36.7-119.5m-644.3-12c-6.9-22.9-11.5-46.8-21.3-68.4-12.6-27.3-45.1-39.7-73.8-32.2-30.4 8-42.4 22.5-39.3 60 2.8 32.5 10.3 65 19 96.7a315 315 0 0 0 27.7 67.2c15.6 28.6 31.9 28.8 47.2 1.2 21.1-38 37.5-78 40.5-124.5"/></svg>