<svg xmlns="http://www.w3.org/2000/svg" xml:space="preserve" style="fill-rule:evenodd;clip-rule:evenodd;stroke-linejoin:round;stroke-miterlimit:2" viewBox="0 0 345 149"><path d="M0 14.2V8.8h12.8q3 0 4.6-1.7a6 6 0 0 0 1.7-4.4q0-2.7-1.7-4.4a6 6 0 0 0-4.6-1.6H-4V23h-5.5V-8.9h22.4q2.8 0 5 .8 2.1.8 3.6 2.3t2.3 3.6.8 4.7-.8 4.8-2.3 3.6-3.6 2.4-5 .9z" style="fill:#fff;fill-rule:nonzero" transform="translate(9.6 125.7)"/><path d="M271.4 367.2h17.7v4.7h-17.7zm-9.6 18.6v-32h28.5v5.6h-23v20.8h23v5.6z" style="fill:#fff;fill-rule:nonzero" transform="translate(-223.8 -237)"/><path d="m0 32.4-4.8-8h-15l2.6-4.6h9.7l-7-12-14.6 24.6h-6.3l18.3-30.6q.4-.9 1.2-1.3t1.5-.5q1 0 1.6.5t1.1 1.3L6.7 32.4z" style="fill:#fff;fill-rule:nonzero" transform="translate(104.6 116.4)"/><path d="m0 32-17.9-14.1q-.7-.6-1-1.2a4 4 0 0 1 .2-2.5q.2-.6 1.1-1.2L-.7 0h8.6l-21 15.6L8.6 31.9zM-26.3 0h5.6v32h-5.6z" style="fill:#fff;fill-rule:nonzero" transform="translate(141 116.9)"/><path d="M0 32v-5.7h24q2.1 0 3.4-1.1a4 4 0 0 0 1.2-3q0-2-1.2-3.1-1.2-1-3.5-1H9.3q-2.3 0-4.1-.7t-3-2a8 8 0 0 1-2-2.8A10 10 0 0 1-.5 9q0-2 .7-3.6T2 2.5A9 9 0 0 1 5.1.7q2-.7 4.3-.7h22.9v5.6h-23q-1.8 0-3 1-1 1-1 2.9t1 2.8 3 1H24q4.9 0 7.4 2.3t2.5 7a11 11 0 0 1-.6 3.7 8 8 0 0 1-5 5q-1.8.6-4.3.6z" style="fill:#0580c4;fill-rule:nonzero" transform="translate(166 116.9)"/><path d="M0 32a15 15 0 0 1-14.3-10q-1.2-2.9-1.2-6.4t1.2-6.4a14 14 0 0 1 8.1-8Q-3.2 0 0 0h17.3v5.6H0q-2.1 0-4 .7a9 9 0 0 0-5.2 5.4q-.7 2-.7 4.2t.7 4.2A9.5 9.5 0 0 0 0 26.4h17.3v5.5z" style="fill:#0580c4;fill-rule:nonzero" transform="translate(219.3 116.9)"/><path d="m0 32.4-4.8-8h-15l2.6-4.6h9.7l-7-12-14.6 24.6h-6.3l18.3-30.6q.4-.9 1.2-1.3t1.5-.5q1 0 1.6.5t1.1 1.3L6.7 32.4z" style="fill:#0580c4;fill-rule:nonzero" transform="translate(274.4 116.4)"/><path d="M0 32V0h5.6v26.3H27V32z" style="fill:#0580c4;fill-rule:nonzero" transform="translate(284.5 116.9)"/><path d="M549 367.2h17.6v4.7H549zm-9.7 18.6v-32h28.5v5.6h-23v20.8h23v5.6z" style="fill:#0580c4;fill-rule:nonzero" transform="translate(-223.8 -237)"/><path d="m0-56.3-32.6 32.9a4 4 0 0 1-6.1-.1L-54-39.7a4 4 0 0 0-6 0l-5.6 5.4a4 4 0 0 0 0 6l27 27a4 4 0 0 0 6 0L.1-33a4 4 0 0 1 6 0L39.8.5q1.2 1.2 2.8 1.2h12.2c3.5 0 5.2-4.2 2.8-6.6L6-56.4a4 4 0 0 0-6 0" style="fill:#0580c4;fill-rule:nonzero" transform="translate(208.8 96.4)"/><path d="m0-49 14.8 14.7a4 4 0 0 0 6 0l5.6-5.5a4 4 0 0 0 0-6.1L.2-72.1a4 4 0 0 0-6 0L-98 18a3.9 3.9 0 0 0 2.7 6.6H-83q1.6 0 2.7-1L-6-49.2a4 4 0 0 1 6 0" style="fill:#fff;fill-rule:nonzero" transform="translate(175.7 73.3)"/></svg>