<svg height="50" viewBox="0 0 179 50" width="179" xmlns="http://www.w3.org/2000/svg"><g fill="none" fill-rule="evenodd"><g fill="#95c11f"><path d="m42.5096642 49.2410884-7.1170183-8.174337h5.444171c.8931932 0 1.6172189-.6870829 1.6172189-1.5347017v-15.7937016h-5.8626682v11.7648729h-30.72858537v-11.7648729h-5.86266812v15.7937016c0 .8476188.72402568 1.5347017 1.6172189 1.5347017h22.51525869z"/><path d="m8.68203209 27.5681989h4.03634331v-3.8298508h-4.03634331z"/><path d="m15.521764 23.7383481h2.7942599v-2.6519558h-2.7942599z"/><path d="m22.0950499 23.7383481h2.7942599v-2.6519558h-2.7942599z"/><path d="m32.1609467 21.7455912h1.7079361v-1.6207901h-1.7079361z"/></g><g fill="#0069b3"><path d="m29.3872266 17.7047017h2.7939746v-2.6519558h-2.7939746z"/><path d="m27.6792905 21.2123978h1.7076508v-1.6205193h-1.7076508z"/><path d="m11.0107246 21.2248508h1.7076508v-1.6205193h-1.7076508z"/><path d="m0 17.7048099h5.86266812v-11.87072371h12.45335578v-5.56353039h-16.698805c-.89319322 0-1.6172189.68708287-1.6172189 1.53470166z"/><path d="m24.1382401.27060995v5.56353038h12.4533558v11.87072377h5.8626681v-15.8995525c0-.84761878-.724311-1.53470165-1.6175042-1.53470165z"/><path d="m59.4703297 23.043963c1.9167567 0 3.3710841-.0974586 4.3646938-.2923757v-6.5297238c-.3426142-.0977292-.8395617-.1949171-1.4894161-.2923757-.6504249-.0977292-1.369601-.1461878-2.1563869-.1461878-.6855137 0-1.3787298.0484586-2.0799335.1461878-.7017743.0974586-1.3347976.2764034-1.8999256.5360221-.5645574.260431-1.0187138.6259006-1.3604722 1.0964089-.3426142.4713204-.5134934 1.0644641-.5134934 1.7783481 0 1.3971767.4618588 2.3636408 1.3861469 2.8996629.9245734.5360221 2.1737887.8040332 3.748787.8040332m-.5137786-21.97717681c2.0539735 0 3.7824493.24391712 5.1865684.73120994 1.4032634.4870221 2.5241053 1.16950277 3.3633817 2.04662984.8381354.87685635 1.4377815 1.94159116 1.7972269 3.19176795.3591601 1.25098895.5388828 2.62380111.5388828 4.11762428v15.4471824c-.958521.1946464-2.405146.4307127-4.3390192.7065745-1.9344437.2755912-4.1165053.4141989-6.5470406.4141989-1.6092313 0-3.0809604-.1461878-4.4157579-.4385635-1.3353681-.2923757-2.4736118-.762884-3.414731-1.4134199-.9422604-.6491823-1.6779823-1.4935525-2.2080216-2.5336519-.5314657-1.0392873-.7959148-2.322221-.7959148-3.849884 0-1.4616077.2992526-2.6960829.8983282-3.7031547.5987903-1.0065304 1.4121068-1.8273481 2.4393789-2.4608287 1.0269867-.6334807 2.2160092-1.0882873 3.568779-1.3644199 1.351914-.2758619 2.7637355-.4141989 4.2360352-.4141989.6846578 0 1.4032633.0411492 2.1569575.1218232.7525531.0814862 1.5573113.2192818 2.4134189.4141989v-.9748564c0-.6819392-.0858675-1.33166295-.257032-1.94890052-.1714497-.61669613-.4707022-1.1611105-.8983281-1.63243094-.4284817-.47050829-.9933244-.8359779-1.6945282-1.09640884-.7020596-.25961878-1.5838418-.38983425-2.6447762-.38983425-1.4374962 0-2.7557479.09745856-3.9536138.29237569-1.1987218.19464641-2.1743592.42232044-2.9269123.68220994l-.7702401-4.77546961c.7870712-.25961879 1.9335879-.51923757 3.4401204-.77966851 1.5062473-.25961878 3.1146227-.39010497 4.8268379-.39010497"/><path d="m82.6884182 27.1858978c-1.7184912-3.3455359-3.4806293-7.1875691-5.284988-11.5244751-1.8052146-4.3369061-3.4461112-8.99055253-4.9238311-13.96093927h6.6260616c.3782735 1.4299337.8161692 2.96490607 1.3145431 4.60491712.4980886 1.64082321 1.0309806 3.28164641 1.5981055 4.92165745.5674102 1.6408232 1.1513663 3.2329171 1.7532947 4.7754696.6016431 1.5433647 1.1599245 2.9321492 1.6759853 4.1663536.5152051-1.2342044 1.0654988-2.6229889 1.6494549-4.1663536.5842414-1.5425525 1.1602098-3.1346464 1.72762-4.7754696.5662691-1.64001104 1.1080046-3.28083424 1.6237802-4.92165745.515205-1.64001105.9619443-3.17498342 1.340503-4.60491712h6.420379c-1.4777199 4.97038674-3.1191871 9.62403317-4.923831 13.96093927-1.8052146 4.336906-3.5662116 8.1789392-5.2849881 11.5244751z"/><path d="m117.755966 11.9336597c0-.8116133-.120386-1.5839724-.359731-2.31464092-.239915-.73093922-.590232-1.36441988-1.052376-1.90044198s-1.027272-.95780111-1.694814-1.26696133c-.667256-.30861878-1.463456-.46292818-2.387744-.46292818-.958521 0-1.797227.17055249-2.515832.51165746-.719176.34083426-1.327095.78806077-1.823187 1.34005525-.496377.55280663-.881782 1.18628729-1.15536 1.90017127-.274148.71523753-.462144 1.44617683-.564558 2.19308843zm-18.0239035 2.6313812c0-2.2418177.3508875-4.2066906 1.0529465-5.89651383.701204-1.68846961 1.63405-3.09403867 2.798254-4.21481215 1.163348-1.1210442 2.498716-1.96541437 4.005248-2.53392265 1.506248-.56796686 3.046728-.85303315 4.621726-.85303315 3.697153 0 6.580703 1.08909944 8.652364 3.26513259 2.070519 2.17684531 3.106349 5.42573481 3.106349 9.74585639 0 .3251326-.008558.6906022-.025674 1.0964088-.017402.4066188-.043077.7718177-.076739 1.0964088h-17.715807c.171164 2.0466299.932561 3.6303315 2.285331 4.751105 1.351628 1.1207735 3.311747 1.6811602 5.879214 1.6811602 1.506247 0 2.883836-.1294033 4.133907-.3898342 1.249215-.2596188 2.233696-.5362928 2.952301-.8283978l.821875 4.8241989c-.342614.1629724-.813602.3335249-1.412107.5116574-.599646.1786741-1.283733.341105-2.053973.4872929-.77024.1461878-1.600958.268011-2.490728.3654696-.890341.0974585-1.797227.1461878-2.721515.1461878-2.361785 0-4.415758-.3335248-6.161636-.9989503-1.745877-.6656961-3.183944-1.5915524-4.313344-2.7778397-1.129686-1.1852045-1.968962-2.582652-2.516403-4.1904475-.548012-1.6080663-.8215895-3.3699006-.8215895-5.2871271z"/><path d="m134.367334 13.7853453c0 2.5019779.572831 4.329326 1.720203 5.4820442 1.146517 1.1535304 2.626804 1.7298895 4.441718 1.7298895.992468 0 1.9256-.1294033 2.798539-.3898342.872939-.2596188 1.582986-.5679669 2.130997-.9258564v-13.20563536c-.445313-.09745856-.993324-.18652486-1.643179-.26801105-.65071-.08067403-1.472299-.12182321-2.464768-.12182321-2.259371 0-3.988417.70657459-5.186283 2.11972376-1.198436 1.41314917-1.797227 3.27298346-1.797227 5.57950276zm17.304727 10.8179006c0 4.0605027-1.087179 7.0329889-3.260683 8.9174585-2.174359 1.8836575-5.503222 2.8262984-9.987446 2.8262984-1.643179 0-3.243852-.1302155-4.801163-.3898343-1.558167-.2604309-2.969989-.6015359-4.236321-1.0233149l1.129686-5.019116c1.060649.421779 2.267358.7628839 3.620128 1.0233149 1.351914.2596188 2.815656.3898342 4.390369.3898342 2.49843 0 4.278826-.4872928 5.340331-1.4618784 1.060934-.9745856 1.591829-2.4204917 1.591829-4.3369061v-.9745856c-.616192.2923757-1.429793.5847514-2.439093.877127-1.010156.2923757-2.165516.4385636-3.466081.4385636-1.712215 0-3.27837-.2596188-4.698464-.7796685-1.42095-.5192376-2.636503-1.2829337-3.645803-2.2902763-1.010156-1.0065304-1.797227-2.2659116-2.36207-3.7765193-.564842-1.5106077-.847264-3.2564696-.847264-5.2383978 0-1.8517127.299253-3.5572376.898614-5.11657458.598505-1.55933702 1.471443-2.891 2.618816-3.99580111 1.146516-1.10398895 2.541792-1.96514364 4.184971-2.58265193 1.643179-.61696685 3.508586-.92585635 5.597078-.92585635 2.019455 0 3.936497.14618784 5.751126.43856353 1.814058.29237569 3.354538.60153591 4.62144.92585636z"/><path d="m167.893432 23.043963c1.916756 0 3.371084-.0974586 4.364693-.2923757v-6.5297238c-.342614-.0977292-.839561-.1949171-1.489416-.2923757-.650425-.0977292-1.369601-.1461878-2.156387-.1461878-.685513 0-1.378729.0484586-2.079933.1461878-.701774.0974586-1.334798.2764034-1.899926.5360221-.564557.260431-1.018714.6259006-1.360472 1.0964089-.342614.4713204-.513493 1.0644641-.513493 1.7783481 0 1.3971767.461858 2.3636408 1.386147 2.8996629.924573.5360221 2.173788.8040332 3.748787.8040332m-.513779-21.97717681c2.053973 0 3.782449.24391712 5.186568.73120994 1.403264.4870221 2.524106 1.16950277 3.363382 2.04662984.838135.87685635 1.437782 1.94159116 1.797227 3.19176795.35916 1.25098895.538883 2.62380111.538883 4.11762428v15.4471824c-.958521.1946464-2.405146.4307127-4.339019.7065745-1.934444.2755912-4.116506.4141989-6.547041.4141989-1.609231 0-3.08096-.1461878-4.415758-.4385635-1.335368-.2923757-2.473612-.762884-3.414731-1.4134199-.94226-.6491823-1.677982-1.4935525-2.208022-2.5336519-.531465-1.0392873-.795914-2.322221-.795914-3.849884 0-1.4616077.299252-2.6960829.898328-3.7031547.59879-1.0065304 1.412107-1.8273481 2.439379-2.4608287 1.026986-.6334807 2.216009-1.0882873 3.568779-1.3644199 1.351914-.2758619 2.763735-.4141989 4.236035-.4141989.684658 0 1.403263.0411492 2.156957.1218232.752554.0814862 1.557312.2192818 2.413419.4141989v-.9748564c0-.6819392-.085867-1.33166295-.257032-1.94890052-.171449-.61669613-.470702-1.1611105-.898328-1.63243094-.428481-.47050829-.993324-.8359779-1.694528-1.09640884-.70206-.25961878-1.583842-.38983425-2.644776-.38983425-1.437496 0-2.755748.09745856-3.953614.29237569-1.198722.19464641-2.174359.42232044-2.926912.68220994l-.77024-4.77546961c.787071-.25961879 1.933588-.51923757 3.44012-.77966851 1.506247-.25961878 3.114623-.39010497 4.826838-.39010497"/></g><g fill="#95c11f"><path d="m52.5705476 37.5337033c0-.6578453-.1563302-1.169232-.4687054-1.5349724-.3123751-.3654696-.8150281-.5479337-1.5082442-.5479337-.1454897 0-.2975408.0059558-.4555827.0181382-.1586124.0121823-.3146573.0387127-.4687054.0790497v3.6425138c.1369316.0896077.3186512.1727182.5454441.2498729s.4687054.1158674.7254521.1158674c.5648427 0 .9776343-.1830055 1.2386601-.5484751.2610259-.3651989.3916814-.8568232.3916814-1.4740608zm1.5918295-.0243646c0 .4872928-.0661836.9339779-.1988361 1.3400552-.1329377.4060774-.3232155.7553039-.571404 1.0476796-.2481885.2926464-.5582814.519779-.9308494.6822099-.3719974.162431-.7939178.2436464-1.2643348.2436464-.3169396 0-.6076339-.0362762-.8729388-.1096408-.2655902-.0728233-.4835396-.1540387-.6547041-.2433757v2.4727403h-1.5533174v-8.4177127c.3163689-.0812155.7060534-.1586409 1.1679121-.2317348.4624294-.0728232.9502481-.1096409 1.4637415-.1096409.5306098 0 1.0055912.0774254 1.4246588.2314641.419353.1545801.7768014.3757569 1.0720601.6640718s.5220516.6375414.6803788 1.0476796c.1583271.4101381.2376333.8711712.2376333 1.382558z"/><path d="m57.878757 39.6534541c.4792605 0 .8426997-.0243646 1.0911734-.0730939v-1.6324309c-.0858675-.0243647-.2096765-.0484586-.3722827-.0728232-.1628915-.0246354-.3426142-.0368177-.5391681-.0368177-.1714497 0-.3446111.0121823-.5197694.0368177-.1757288.0243646-.3337707.0690331-.4749814.1337348-.1414959.0652431-.255035.1564751-.340332.2742376-.0858675.1177624-.1283733.266116-.1283733.4445193 0 .3492265.115536.5909779.346608.7249834.2307868.1340055.5434472.2008729.9371255.2008729m-.1283734-5.4942265c.5134934 0 .9453984.0611823 1.2965708.1827348.3506019.1218232.6310263.2923757.8407028.5119282.2096765.2190111.3597306.4851271.4493067.7978066.0901466.3126796.1349347.6559503.1349347 1.0295415v3.8615248c-.2396303.0487293-.6016431.1080166-1.0848975.176779-.4835396.0687625-1.0289836.1034144-1.6366175.1034144-.4022365 0-.7702401-.0362762-1.1040108-.1096409-.3337707-.0728232-.6184742-.1905856-.8535401-.3532873-.2356364-.1621602-.4196382-.3735911-.5522907-.6332099-.1326524-.2598895-.198836-.5806906-.198836-.962674 0-.3654697.0747418-.6738177.224796-.9258564.1494836-.251768.3528841-.4569724.6093455-.6153425.2570319-.1583702.5542876-.2718011.8923374-.3408343.3380498-.0690331.6909339-.1036851 1.0592227-.1036851.1711645 0 .3508872.0102873.5391681.0305912.1879956.0203038.3891139.0546851.6033547.1034143v-.2433756c0-.1708233-.0213956-.3332542-.0641867-.4875636-.0430764-.1543094-.1175329-.2902099-.2245107-.4079724-.107263-.1177624-.2484737-.2089944-.4239173-.2742375-.1754436-.0649724-.3959605-.0974586-.6609801-.0974586-.3594454 0-.688937.0243647-.9884748.0730939-.2998231.0487293-.5434471.1055801-.7320133.1705525l-.1922748-1.1938674c.1968392-.0647016.4832544-.129674.8601015-.1949171.3765618-.0649724.7787983-.0974586 1.2067094-.0974586"/><path d="m63.8160243 39.6291166c.4105094 0 .7100472-.0465636.8983281-.1402321.1885662-.093127.2827066-.253663.2827066-.4810663 0-.2111602-.1007017-.3857734-.30182-.523569-.2011182-.1380663-.5326067-.2885857-.9947508-.4510166-.2827066-.0974586-.5414502-.2011436-.7768013-.3105138-.2353512-.1096409-.4387516-.2376906-.6099161-.3838785-.1711644-.1461878-.3058138-.3226961-.4042334-.5297955-.0984196-.2073702-.1474867-.4610332-.1474867-.7612597 0-.5850221.2265076-1.0457845.6803787-1.3830995.4533006-.3367734 1.0697779-.5054309 1.8485762-.5054309.393393 0 .7699548.0346519 1.1296855.1036851.3594454.0690331.6290294.1361712.8087521.2008729l-.2824214 1.1938674c-.1714497-.0730939-.3896844-.140232-.6547041-.2008729-.2655901-.0611823-.5736862-.0915028-.9242881-.0915028-.3169395 0-.5734009.0506243-.7705253.1521437-.1968391.10179-.2952587.2582652-.2952587.4691547 0 .1058508.0196839.1989779.0579106.2801933.038512.0812155.1049809.1564752.1991214.2252376.0941404.0693039.2179494.138337.3719974.2073702.154048.0690331.3423289.1399613.565128.2130552.3677183.1299448.6803787.2579945.9371254.3838785.2564614.1258839.4684201.2677403.6353055.4263812.1668853.1583702.2886974.3392099.3660066.5419779.0767388.2030387.115536.4466851.115536.7309392 0 .609116-.2376333 1.0701492-.7126147 1.3828287-.4749814.3124089-1.1533632.468884-2.0345749.468884-.5905174 0-1.0654988-.0468342-1.4249441-.140232-.3597307-.0931271-.6121983-.1683868-.7574028-.2252376l.2695841-1.2304144c.231072.0896078.506932.174884.8278654.2558288.3209334.0814862.68694.1218232 1.0977348.1218232"/><path d="m70.3510264 39.4888845c.1885662-.093127.2827066-.253663.2827066-.4810663 0-.2111602-.1007017-.3857734-.30182-.523569-.2011182-.1380663-.5326067-.2885857-.9947508-.4510166-.2827066-.0974586-.5414502-.2011436-.7768014-.3105138-.2353511-.1096409-.4387515-.2376906-.609916-.3838785-.1711645-.1461878-.3058138-.3226961-.4042334-.5297955-.0984196-.2073702-.1474867-.4610332-.1474867-.7612597 0-.5850221.2265076-1.0457845.6803787-1.3830995.4533006-.3367734 1.0697779-.5054309 1.8485762-.5054309.393393 0 .7699548.0346519 1.1296855.1036851.3594453.0690331.6290294.1361712.808752.2008729l-.2824213 1.1938674c-.1714498-.0730939-.3896844-.140232-.6547041-.2008729-.2655902-.0611823-.5736862-.0915028-.9242881-.0915028-.3169395 0-.5734009.0506243-.7705253.1521437-.1968392.10179-.2952587.2582652-.2952587.4691547 0 .1058508.0196839.1989779.0579106.2801933.038512.0812155.1049809.1564752.1991213.2252376.0941405.0693039.2179494.138337.3719975.2073702.154048.0690331.3423289.1399613.565128.2130552.3677183.1299448.6803787.2579945.9371254.3838785.2564614.1258839.4684201.2677403.6353054.4263812.1668854.1583702.2886974.3392099.3660067.5419779.0767387.2030387.115536.4466851.115536.7309392 0 .609116-.2376333 1.0701492-.7126147 1.3828287-.4749814.3124089-1.1533632.468884-2.0345749.468884-.5905174 0-1.0654988-.0468342-1.4249442-.140232-.3597306-.0931271-.6121982-.1683868-.7574027-.2252376l.269584-1.2304144c.231072.0896078.5069321.174884.8278655.2558288.3209333.0814862.68694.1218232 1.0977347.1218232.4105095 0 .7100473-.0465636.8983282-.1402321z"/><path d="m73.3357638 40.6890055h1.5533175v-6.3713536h-1.5533175zm1.7202028-8.2352486c0 .2764033-.0941405.4954144-.2824214.6578453s-.4107947.2436464-.6675414.2436464c-.2655902 0-.4923831-.0812155-.6803787-.2436464-.1882809-.1624309-.2824214-.381442-.2824214-.6578453 0-.2842541.0941405-.5075967.2824214-.6700276.1879956-.162431.4147885-.2436464.6803787-.2436464.2567467 0 .4792605.0812154.6675414.2436464.1882809.1624309.2824214.3857735.2824214.6700276z"/><path d="m81.031375 37.4972105c0-.6334807-.1434928-1.1348508-.4301933-1.5046519-.2867005-.3692597-.6866548-.5538895-1.2001482-.5538895-.5134933 0-.9137329.1846298-1.2004334.5538895-.2867005.3698011-.4299081.8711712-.4299081 1.5046519 0 .6416022.1432076 1.1491989.4299081 1.5227901.2867005.3735911.6869401.5603867 1.2004334.5603867.5134934 0 .9134477-.1867956 1.2001482-.5603867.2867005-.3735912.4301933-.8811879.4301933-1.5227901m1.5918295 0c0 .5035359-.0767387.9624033-.2307867 1.3766022-.1543333.4141989-.372568.7674862-.6549893 1.0598619-.2824214.2923757-.6224681.519779-1.0207108.6824806-.3976721.1621603-.8364237.2433757-1.3156842.2433757-.4795457 0-.9160151-.0812154-1.3094081-.2433757-.3939635-.1627016-.7317281-.3901049-1.0141494-.6824806-.2824214-.2923757-.5029383-.645663-.6612654-1.0598619-.1580419-.4141989-.2373481-.8730663-.2373481-1.3766022 0-.5032652.0793062-.9602376.2373481-1.3703757.1583271-.4101381.3808409-.7615304.6675414-1.0539061s.6267472-.5176132 1.0207107-.6759834c.393393-.1583702.8258686-.2376906 1.2965708-.2376906.4707023 0 .9051748.0793204 1.3031321.2376906.3979574.1583702.7380042.3836077 1.0204255.6759834.2824214.2923757.502653.643768.6612654 1.0539061.1583271.4101381.237348.8671105.237348 1.3703757"/><path d="m83.9364924 34.5248597c.2995378-.0812155.688937-.1586409 1.1681975-.2314641.4792605-.0730939 1.0098703-.1099116 1.5918295-.1099116.5477263 0 1.0055912.0714696 1.3735948.2133259.3677183.1423978.6612654.341105.8792148.5969337.2185199.2558288.372568.5644476.462144.9258564.0901466.3614088.1349347.7574696.1349347 1.1876409v3.5818729h-1.5533175v-3.3501381c0-.341105-.0236778-.6313149-.0704627-.8711713-.0470703-.2393149-.1243795-.4345027-.2310721-.5847514-.107263-.1502486-.2527528-.2596187-.4364693-.3289226-.1842871-.0687624-.4090831-.1034144-.6738175-.1034144-.1971244 0-.402807.0121823-.6164773.036547-.2139556.0243646-.3722827.0446685-.4749814.0606409v5.1412099h-1.5533175z"/><path d="m96.914781 31.2355519c.3594454 0 .6760997.0303205.9499628.0915028.2738632.0606409.4792605.1155967.6161921.164326l-.2952587 1.218232c-.1457751-.0649724-.3143721-.1174917-.5069321-.1583702-.19256-.0406077-.4002396-.0609116-.6227534-.0609116-.2481884 0-.4578649.034652-.6290294.1036851-.1714497.0687625-.308096.164326-.4105094.2861492-.102984.1218232-.1757289.2699061-.21852.44479-.0427911.1746133-.0641866.3635746-.0641866.5663426v.4263812h2.4390935v1.2304144h-2.4390935v5.1409392h-1.5533175v-6.8220995c0-.8202762.2267929-1.4640441.6803787-1.9307624.4535858-.4672597 1.1382437-.7006188 2.0539735-.7006188"/><path d="m103.538789 37.4972105c0-.6334807-.143493-1.1348508-.430194-1.5046519-.2867-.3692597-.686654-.5538895-1.200148-.5538895-.513493 0-.913733.1846298-1.200433.5538895-.286701.3698011-.429908.8711712-.429908 1.5046519 0 .6416022.143207 1.1491989.429908 1.5227901.2867.3735911.68694.5603867 1.200433.5603867.513494 0 .913448-.1867956 1.200148-.5603867.286701-.3735912.430194-.8811879.430194-1.5227901m1.591829 0c0 .5035359-.076739.9624033-.230787 1.3766022-.154333.4141989-.372568.7674862-.654989 1.0598619s-.622468.519779-1.020711.6824806c-.397672.1621603-.836423.2433757-1.315684.2433757-.479546 0-.916015-.0812154-1.309408-.2433757-.393963-.1627016-.731728-.3901049-1.0141494-.6824806s-.5029382-.645663-.6612654-1.0598619c-.1580418-.4141989-.237348-.8730663-.237348-1.3766022 0-.5032652.0793062-.9602376.237348-1.3703757.1583272-.4101381.380841-.7615304.6675414-1.0539061.2867005-.2923757.6267474-.5176132 1.0207104-.6759834.393393-.1583702.825869-.2376906 1.296571-.2376906s.905175.0793204 1.303132.2376906c.397958.1583702.738004.3836077 1.020426.6759834.282421.2923757.502653.643768.661265 1.0539061.158327.4101381.237348.8671105.237348 1.3703757"/><path d="m110.269175 35.6455519c-.128373-.040337-.306099-.0833812-.532607-.1280497-.227078-.0443978-.490101-.0668674-.789638-.0668674-.171165 0-.352884.0165138-.54573.0487293-.19256.0324862-.327209.0609116-.404233.0850055v5.104663h-1.553318v-6.0667956c.299538-.1055801.673818-.2049337 1.123124-.2986022.449592-.0933978.947966-.1399613 1.495693-.1399613.102698 0 .222513.0059558.359445.0181381s.273863.0284254.410795.049c.136646.0203039.269584.0446685.397957.0728232.128373.0286961.231072.0549558.308096.0793204z"/><path d="m114.428643 40.6890055h1.617504v-8.442348h-1.617504z"/><path d="m124.185759 32.2467657v1.3276023h-2.734353v7.1147458h-1.630341v-7.1147458h-2.734352v-1.3276023z"/><path d="m126.067912 39.8850536c0 .2842541-.100702.5157182-.30182.6941215-.201119.1789448-.442746.2682818-.725167.2682818-.29098 0-.535174-.089337-.731728-.2682818-.196839-.1784033-.295259-.4098674-.295259-.6941215 0-.2842542.09842-.517884.295259-.7006188.196554-.1827348.440748-.2742376.731728-.2742376.282421 0 .524048.0915028.725167.2742376.201118.1827348.30182.4163646.30182.7006188"/></g></g></svg>