<svg xmlns="http://www.w3.org/2000/svg" width="179" height="50"><g fill="none" fill-rule="evenodd"><g fill="#95c11f"><path d="m42.5 49.2-7.1-8.1h5.4q1.6-.1 1.7-1.6V23.7h-6v11.8H6V23.7H0v15.8q.1 1.5 1.6 1.6h22.5z"/><path d="M8.7 27.6h4v-3.9h-4zm6.8-3.9h2.8v-2.6h-2.8zm6.6 0h2.8v-2.6H22zm10.1-2h1.7v-1.6h-1.7z"/></g><path fill="#0069b3" d="M29.4 17.7h2.8v-2.6h-2.8zm-1.7 3.5h1.7v-1.6h-1.7zm-16.7 0h1.7v-1.6H11zM0 17.7h5.9V5.8h12.4V.3H1.6Q.1.4 0 1.8zM24.1.3v5.5h12.5v11.9h5.9V1.8Q42.3.5 40.8.3zM59.5 23q2.8 0 4.3-.2v-6.6a13 13 0 0 0-3.6-.4l-2 .1q-1.1.2-2 .6t-1.4 1a3 3 0 0 0-.5 1.8q0 2.1 1.4 3 1.5.7 3.8.7M59 1q3 0 5.1.8 2.2.8 3.4 2 1.2 1.4 1.8 3.2.6 2 .5 4.2v15.4A82 82 0 0 1 59 27.7q-2.5 0-4.5-.4a10 10 0 0 1-3.4-1.4q-1.5-1-2.2-2.6-.8-1.5-.8-3.8t1-3.7q.7-1.5 2.4-2.5Q53 12.4 55 12a21 21 0 0 1 8.8 0v-.9l-.2-2A4 4 0 0 0 61 6.5q-1-.3-2.7-.4a25 25 0 0 0-6.8 1l-.8-4.8A26 26 0 0 1 59 1.1m23.7 26.1A159 159 0 0 1 72.5 1.7H79a132 132 0 0 0 6.3 18.5 134 134 0 0 0 6.4-18.5h6.4A141 141 0 0 1 88 27.2zM117.8 12q0-1.3-.4-2.4-.3-1-1-1.9c-.8-.9-1-1-1.8-1.2q-1-.6-2.3-.5-1.5 0-2.6.5a6 6 0 0 0-3 3.2l-.5 2.2zm-18 2.6q0-3.4 1-6 1-2.4 2.8-4.1 1.7-1.8 4-2.6t4.6-.8q5.5 0 8.7 3.2 3 3.3 3 9.8v2.2h-17.7q.2 3 2.2 4.7t6 1.7a20 20 0 0 0 7-1.2l.8 4.8-1.4.5a21 21 0 0 1-4.5.9l-2.8.1q-3.5 0-6.1-1-2.7-1-4.3-2.8-1.8-1.7-2.5-4.1-.9-2.5-.9-5.3m34.7-.8q0 3.7 1.7 5.5a6 6 0 0 0 4.4 1.7 10 10 0 0 0 5-1.3V6.5a19 19 0 0 0-4.1-.4q-3.4 0-5.2 2.1a8 8 0 0 0-1.8 5.6m17.3 10.8q0 6-3.3 9-3.3 2.7-10 2.7a29 29 0 0 1-9-1.4l1.1-5a20 20 0 0 0 8 1.4q3.8 0 5.4-1.4 1.5-1.5 1.6-4.4v-1l-2.5 1q-1.5.4-3.4.4-2.7 0-4.7-.8a10 10 0 0 1-6-6 15 15 0 0 1-.9-5.3q0-2.8.9-5.1 1-2.4 2.6-4a12 12 0 0 1 4.2-2.6q2.4-1 5.6-1a36 36 0 0 1 10.4 1.4zm16.2-1.6q3 0 4.4-.2v-6.6a13 13 0 0 0-3.7-.4l-2 .1q-1.2.2-2 .6t-1.3 1a3 3 0 0 0-.5 1.8q0 2.1 1.3 3 1.4.7 3.8.7m-.5-22q3 0 5.2.8 2.1.8 3.3 2 1.4 1.4 1.8 3.2.6 2 .6 4.2v15.4a82 82 0 0 1-11 1.1q-2.3 0-4.3-.4a10 10 0 0 1-3.5-1.4q-1.3-1-2.2-2.6-.8-1.5-.8-3.8t1-3.7q.8-1.5 2.4-2.5t3.6-1.3a21 21 0 0 1 8.8 0v-.9q0-1-.3-2a4 4 0 0 0-2.6-2.7q-1-.3-2.6-.4a25 25 0 0 0-7 1l-.7-4.8a26 26 0 0 1 8.3-1.1"/><path fill="#95c11f" d="M52.6 37.5q0-.9-.5-1.5t-1.5-.5h-1v3.7l.6.2.7.2q.9 0 1.3-.6t.4-1.5m1.6 0-.2 1.3-.6 1.1-1 .7-1.2.2-1.5-.3v2.4H48v-8.4l2.6-.3q.8 0 1.5.2l1 .7q.5.4.7 1 .3.6.3 1.4m3.8 2.2 1-.1v-1.7h-1.4l-.4.1q-.3 0-.4.3l-.1.4q0 .6.3.8zm-.1-5.5 1.2.1q.6.2.9.6l.4.8.2 1v3.8l-2.7.3h-1.2l-.8-.4-.6-.7-.2-1 .3-.9.6-.6.9-.3a5 5 0 0 1 2.2 0v-.7a1 1 0 0 0-.7-.7l-.7-.1-1.7.2-.2-1.1zm6 5.4 1-.1.2-.5q0-.3-.3-.5l-1-.5q-.4 0-.8-.3-.3 0-.6-.4a2 2 0 0 1-.5-1.3q0-.8.6-1.3a3 3 0 0 1 1.9-.5l2 .3-.4 1.2-1.5-.3-.8.1q-.3.2-.3.5v.3l.3.2.3.2.6.2 1 .4.6.4.3.6.2.7q0 .9-.8 1.4-.6.4-2 .4a6 6 0 0 1-2.2-.3l.3-1.2.8.2zm6.6-.1.2-.5q0-.3-.3-.5l-1-.5-.7-.3q-.5 0-.6-.4a2 2 0 0 1-.6-1.3q0-.8.7-1.3a3 3 0 0 1 1.8-.5l2 .3-.3 1.2-1.6-.3-.8.1q-.3.2-.3.5l.1.3.2.2.4.2.5.2 1 .4.6.4.4.6v.7q0 .9-.6 1.4-.8.4-2 .4a6 6 0 0 1-2.2-.3l.2-1.2.9.2 1 .1zm2.9 1.2H75v-6.4h-1.6zm1.8-8.2-.3.6q-.3.3-.7.3l-.7-.3-.3-.6q0-.5.3-.7.3-.3.7-.3t.7.3.3.7m5.9 5q0-.9-.4-1.5t-1.2-.6-1.2.6-.4 1.5.4 1.5 1.2.6 1.2-.6.4-1.5m1.6 0q0 .8-.2 1.4l-.7 1-1 .7q-.6.3-1.3.3t-1.3-.3a3 3 0 0 1-1.7-1.7l-.2-1.4q0-.8.2-1.4l.7-1 1-.7q.6-.3 1.3-.2t1.3.2a3 3 0 0 1 1.7 1.7zm1.4-3 2.7-.3q.8 0 1.4.2.5.1.8.6t.5 1l.1 1.1v3.6H88v-4.2l-.3-.6-.4-.3-.7-.1h-1.1v5.2h-1.6zm13-3.3 1.5.3-.3 1.2-.5-.1-.6-.1h-.7l-.4.4-.2.4v1h2.4v1.2h-2.5v5.2h-1.5v-6.8q0-1.3.7-2t2-.7m6.6 6.3q0-.9-.4-1.5t-1.2-.6-1.2.6-.4 1.5.4 1.5 1.2.6 1.2-.6.4-1.5m1.6 0q0 .8-.2 1.4l-.7 1-1 .7q-.6.3-1.3.3t-1.3-.3a3 3 0 0 1-1.7-1.7l-.2-1.4q0-.8.2-1.4l.7-1 1-.7q.6-.3 1.3-.2 1 0 1.3.2a3 3 0 0 1 1.7 1.7q.3.6.2 1.4m5.2-1.9-1.4-.1h-.9v5.2h-1.6v-6a9 9 0 0 1 2.7-.5h.7l.7.2zm4.1 5.1h1.6v-8.5h-1.6zm9.8-8.5v1.4h-2.7v7h-1.7v-7h-2.7v-1.4zm1.8 7.7q0 .4-.2.7l-.8.2-.7-.2-.3-.7q0-.4.3-.7t.7-.3.8.3.3.7"/></g></svg>