<svg xmlns="http://www.w3.org/2000/svg" xml:space="preserve" width="430" height="155"><defs><clipPath id="a" clipPathUnits="userSpaceOnUse"><path d="M0 171.9h378.9V0H0Z"/></clipPath></defs><path d="m0 0-204-.1v-2.1L0-2.1Z" style="fill:#254f24;fill-opacity:1;fill-rule:evenodd;stroke:none" transform="matrix(1.33333 0 0 -1.33333 412.3 87.8)"/><g clip-path="url(#a)" transform="matrix(1.33333 0 0 -1.33333 -59.2 209.2)"><path d="M0 0a43.3 43.3 0 1 1 .1-86.6A43.3 43.3 0 0 1 0 0m0-5a38.3 38.3 0 1 0 0-76.6A38.3 38.3 0 0 0 0-4.9" style="fill:#3fab3c;fill-opacity:1;fill-rule:nonzero;stroke:none" transform="translate(99 138.4)"/><path d="M0 0c-2.3 2-5 3.5-8 3.5-3.6 0-6.5-2.1-6.5-5 0-3 3-4.3 8.1-5.6q8-1.8 8.2-7.7c0-5.3-4.4-8.8-10.2-8.8q-4.3-.1-9.1 3.2v3.8A14 14 0 0 1-8.4-21c3.8 0 7 2.3 7 5.7q.1 4.3-7.3 5.8c-4.9 1.2-8.8 3.2-8.8 7.7 0 4.7 4.2 8 9.5 8q3.9 0 8-2.6z" style="fill:#254f24;fill-opacity:1;fill-rule:nonzero;stroke:none" transform="translate(165.9 75.8)"/><path d="M0 0c0 6.9-4.1 12.2-9.4 12.2S-18.8 6.8-18.8 0c0-7.2 4.4-12 9.3-12C-4.3-12.2 0-7 0 0m-9.1-14.9c-6.3 0-12.7 5.6-12.7 14.7 0 8.6 5.4 15.1 12.5 15.1C-2.6 15 3 8.7 3 0 3-9.3-3.5-14.9-9.1-14.9" style="fill:#254f24;fill-opacity:1;fill-rule:nonzero;stroke:none" transform="translate(193.6 67)"/><path d="M0 0v-26.3h14.4V-29H-2.8V0Z" style="fill:#254f24;fill-opacity:1;fill-rule:nonzero;stroke:none" transform="translate(205 81.5)"/><path d="M0 0v-18.9c0-4.6 2.3-7.7 6.9-7.7 4.5 0 7.2 2.8 7.2 7V0h3v-19.9c0-6-4.1-9.4-10.1-9.4-6.7 0-9.8 4-9.8 10.7V0Z" style="fill:#254f24;fill-opacity:1;fill-rule:nonzero;stroke:none" transform="translate(224.4 81.5)"/><path d="M0 0v-2.5h-8.7V-29h-2.7v26.4h-8.7V0Z" style="fill:#254f24;fill-opacity:1;fill-rule:nonzero;stroke:none" transform="translate(265.7 81.5)"/><path d="M273.3 52.7h-2.8v28.8h2.8z" style="fill:#254f24;fill-opacity:1;fill-rule:nonzero;stroke:none"/><path d="M0 0c0 6.9-4.1 12.2-9.4 12.2S-18.8 6.8-18.8 0c0-7.2 4.4-12 9.3-12C-4.3-12.2 0-7 0 0m-9.1-14.9c-6.3 0-12.7 5.6-12.7 14.7 0 8.6 5.4 15.1 12.5 15.1C-2.6 15 3 8.7 3 0 3-9.3-3.5-14.9-9.1-14.9" style="fill:#254f24;fill-opacity:1;fill-rule:nonzero;stroke:none" transform="translate(301 67)"/><path d="M0 0h2.5l10.6-17c.5-.7 2.4-4 4.6-8.2h.3l-.4 9.3V0h2.6v-28.9h-2.6l-7.1 11.4c-2.9 4.6-5.9 9.3-8 13.7h-.3l.3-7.2v-17.9H0Z" style="fill:#254f24;fill-opacity:1;fill-rule:nonzero;stroke:none" transform="translate(309.9 81.5)"/><path d="M0 0c-2.3 2-5 3.5-8 3.5-3.6 0-6.5-2.1-6.5-5 0-3 3-4.3 8.1-5.6q8-1.8 8.2-7.7c0-5.3-4.4-8.8-10.2-8.8q-4.3-.1-9.1 3.2v3.8A14 14 0 0 1-8.4-21c3.8 0 7 2.3 7 5.7q.1 4.3-7.3 5.8c-4.9 1.2-8.8 3.2-8.8 7.7 0 4.7 4.2 8 9.5 8q3.9 0 8-2.6z" style="fill:#254f24;fill-opacity:1;fill-rule:nonzero;stroke:none" transform="translate(353.5 75.8)"/><path d="M0 0q0 2.4-.4 4.3-.3 2-1.2 3.5T-4 10q-1.5.9-3.6.8-2 0-3.5-.7T-13.5 8t-1.4-3.4-.5-4.5q0-2.4.4-4.3.4-2 1.2-3.4a6 6 0 0 1 2.4-2.3q1.5-.8 3.6-.8 2 0 3.5.7 1.5.8 2.4 2.1 1 1.4 1.4 3.4Q0-2.5 0 0m9.1.4q0-4-1-7.4-1.1-3.4-3.2-5.8a14 14 0 0 0-5.4-3.7 20 20 0 0 0-7.6-1.3q-4.2 0-7.3 1.1a13 13 0 0 0-8.1 9 26 26 0 0 0 0 14.8q1.2 3.4 3.3 5.8t5.3 3.7 7.6 1.3T0 16.8a13 13 0 0 0 8.1-9 26 26 0 0 0 1-7.4" style="fill:#254f24;fill-opacity:1;fill-rule:nonzero;stroke:none" transform="translate(173 118)"/><path d="m0 0-.3-3.4q0-.4-.4-.6l-.5-.2-.7.1-1.7.6h-1.2l-1.5-.2q-.7-.3-1.5-1l-1.6-1.7-1.9-2.6v-19.8l-.2-.6q-.2-.3-.7-.4t-1.4-.3a21 21 0 0 0-5.6.3q-.6 0-.7.4l-.2.6V3l.1.6q.2.3.7.4l1.1.3a16 16 0 0 0 4.9-.3l.5-.4.2-.6v-4l2.3 3 2.1 1.8a7 7 0 0 0 4 1.2 10 10 0 0 0 3-.5l.6-.4.3-.4.2-.6v-1z" style="fill:#254f24;fill-opacity:1;fill-rule:nonzero;stroke:none" transform="translate(208.6 131)"/><path d="m0 0-.2-.6-.7-.5-1.4-.2a21 21 0 0 0-5.6.2q-.6.3-.7.5L-9 0v31.6q0 .4.3.7 0 .2.7.4.5.3 1.3.3a18 18 0 0 0 5.7-.3l.7-.4.2-.7Zm.7 42.5q0-2.6-1.1-3.8-1.1-1-4-1-3 0-4 1-1.1.9-1.1 3.6t1 3.7 4.1 1 4-1 1-3.5" style="fill:#254f24;fill-opacity:1;fill-rule:nonzero;stroke:none" transform="translate(223.3 102.2)"/><path d="M0 0q0 2.3-1.3 3.6A5 5 0 0 1-4.9 5Q-6.1 5-7 4.6a4 4 0 0 1-2.4-2.7q-.3-1-.3-2 0-2 1.3-3.4 1.2-1.2 3.6-1.3 1.2 0 2 .4 1 .4 1.6 1t.9 1.6Q0-.9 0 0m1.9-23q0 1.5-1.2 2.3a6 6 0 0 1-3.1.8l-5.8.2a9 9 0 0 1-2.2-2.3l-.4-1v-1q0-1.6 1.6-2.4 1.6-.9 4.6-.9 1.8 0 3 .4a6 6 0 0 1 2 1A4 4 0 0 1 2-23m8.5 29.7q0-1.5-.3-2.3-.4-.7-1-.7H5.9q.7-.7 1-1.8.3-1 .3-2 0-2.6-.8-4.5A9 9 0 0 0 4-7.9Q2.4-9.2 0-9.8t-4.9-.7a10 10 0 0 0-4.6 1.1l-.7-1q-.3-.6-.3-1.3 0-.9.8-1.5 1-.6 2.3-.7l7-.2q2.5 0 4.4-.7t3.2-1.7 2-2.6q.7-1.5.7-3.4a9 9 0 0 0-3.7-7.3Q4.4-31.3 1.6-32t-6.6-.8q-3.6 0-6.3.6t-4.2 1.6q-1.7 1-2.4 2.4-.8 1.5-.8 3.2a7 7 0 0 0 1 3.9l1.4 1.7 1.8 1.5a5 5 0 0 0-3 4.8 7 7 0 0 0 1 3.5q.8 1.5 2.2 2.8a9 9 0 0 0-2.5 6.6q0 2.6.9 4.5a10 10 0 0 0 2.5 3.4q1.6 1.4 3.7 2 2.2.9 4.9.8A20 20 0 0 0 0 10h9q.6 0 1-.7a6 6 0 0 0 .3-2.4" style="fill:#254f24;fill-opacity:1;fill-rule:nonzero;stroke:none" transform="translate(249 126.6)"/><path d="M0 0q0 2.4-.4 4.3-.3 2-1.2 3.5T-4 10q-1.5.9-3.6.8-2 0-3.5-.7T-13.5 8t-1.4-3.4-.5-4.5q0-2.4.4-4.3.4-2 1.2-3.4a6 6 0 0 1 2.4-2.3q1.5-.8 3.6-.8 2 0 3.5.7 1.5.8 2.4 2.1 1 1.4 1.4 3.4Q0-2.5 0 0m9.1.4q0-4-1-7.4-1.1-3.4-3.2-5.8a14 14 0 0 0-5.4-3.7 20 20 0 0 0-7.6-1.3q-4.2 0-7.3 1.1a13 13 0 0 0-8.1 9 26 26 0 0 0 0 14.8q1.2 3.4 3.3 5.8t5.3 3.7 7.6 1.3A21 21 0 0 0 0 16.8a13 13 0 0 0 8.1-9 26 26 0 0 0 1-7.4" style="fill:#3fab3c;fill-opacity:1;fill-rule:nonzero;stroke:none" transform="translate(287.9 118)"/><path d="M0 0q0-2.7-1-4.8a10 10 0 0 0-2.8-3.4q-1.9-1.4-4.4-2a20 20 0 0 0-11.6.2l-2.1.8q-.9.4-1.2.8-.5.3-.6 1.2-.2.8-.2 2.3v1.7l.2 1 .4.5.5.1q.5 0 1.2-.4a24 24 0 0 1 4.5-2 12 12 0 0 1 5.5-.2q.9.2 1.6.7t1 1.2.4 1.6-.7 1.8-1.7 1.4l-2.4 1L-19 6q-1.3.8-2.4 2-1 1-1.7 2.7-.7 1.5-.7 3.8t1 4.2a9 9 0 0 0 2.4 3.2 12 12 0 0 0 4 2.1 18 18 0 0 0 8.3.6 21 21 0 0 0 4.4-1.3q.8-.3 1-.6l.6-.5.2-.7.1-2.3-.2-2.5q0-.3-.3-.5h-.5q-.4 0-1 .3a17 17 0 0 1-4 1.6 11 11 0 0 1-5 .1l-1.5-.7-.9-1-.2-1.4q0-1.2.6-1.9.7-.8 1.8-1.3 1-.6 2.5-1L-5 8.3q1.4-.8 2.5-2A9 9 0 0 0 0 0" style="fill:#3fab3c;fill-opacity:1;fill-rule:nonzero;stroke:none" transform="translate(325.5 111.1)"/><path d="M0 0q0-2.7-1-4.8a10 10 0 0 0-2.8-3.4q-1.9-1.4-4.4-2a20 20 0 0 0-11.6.2l-2.1.8q-.9.4-1.2.8-.4.3-.6 1.2-.3.8-.2 2.3v1.7l.2 1 .4.5.5.1q.5 0 1.2-.4a24 24 0 0 1 4.5-2 12 12 0 0 1 5.5-.2q.9.2 1.6.7t1 1.2.4 1.6-.7 1.8-1.7 1.4l-2.4 1L-19 6q-1.4.8-2.4 2-1 1-1.7 2.7-.7 1.5-.7 3.8t1 4.2a9 9 0 0 0 2.4 3.2 12 12 0 0 0 4 2.1 18 18 0 0 0 8.3.6 21 21 0 0 0 4.4-1.3q.8-.3 1-.6l.6-.5.2-.7.1-2.3-.2-2.5q0-.3-.3-.5h-.5q-.4 0-1 .3a17 17 0 0 1-4 1.6 11 11 0 0 1-5 .1l-1.5-.7-.9-1-.2-1.4q0-1.2.6-1.9.7-.8 1.8-1.3 1-.6 2.5-1L-5 8.3q1.4-.8 2.5-2A9 9 0 0 0 0 0" style="fill:#3fab3c;fill-opacity:1;fill-rule:nonzero;stroke:none" transform="translate(354.6 111.1)"/></g></svg>