<svg xmlns="http://www.w3.org/2000/svg" xml:space="preserve" style="fill-rule:evenodd;clip-rule:evenodd;stroke-linejoin:round;stroke-miterlimit:2" viewBox="0 0 177 91"><path d="m0-52-30.1 30.4a4 4 0 0 1-5.6 0l-14.1-15a4 4 0 0 0-5.6-.1l-5.2 5a4 4 0 0 0 0 5.6l25 25a4 4 0 0 0 5.4 0L.2-30.6a4 4 0 0 1 5.5 0L36.9.6q1 1 2.5 1h11.3c3.2 0 4.8-3.8 2.5-6L5.5-52A4 4 0 0 0 0-52" style="fill:#0580c4;fill-rule:nonzero" transform="translate(122.2 89)"/><path d="m0-45.3 13.6 13.6a4 4 0 0 0 5.5 0l5.3-5a4 4 0 0 0 0-5.7L.1-66.6a4 4 0 0 0-5.5 0l-85.1 83.3a3.6 3.6 0 0 0 2.5 6.1h11.4q1.5 0 2.5-1l68.6-67a4 4 0 0 1 5.5 0" style="fill:#091836;fill-rule:nonzero" transform="translate(91.6 67.7)"/></svg>