<?xml version="1.0" encoding="UTF-8"?>
<svg id="Ebene_2" xmlns="http://www.w3.org/2000/svg" viewBox="0 0 260.28 69.22">
    <defs>
        <style>.cls-1{fill:#f07c0e;}.cls-2{fill:#000000;}</style>
    </defs>
    <g id="Ebene_1-2">
        <g>
            <g>
                <path class="cls-1"
                      d="M30.23,69.22c-.25,0-.56-.07-.78-.19L.72,52.44c-.45-.26-.72-.73-.72-1.25V18.02c0-.52,.27-.99,.72-1.25L29.45,.19c.44-.25,1.06-.25,1.5,0l28.73,16.58c.45,.26,.72,.73,.72,1.25V51.2c0,.52-.27,.99-.72,1.25l-28.73,16.58c-.22,.13-.47,.19-.72,.19ZM2.88,50.36l27.31,15.77,11.54-6.66-26.65-15.38c-.45-.26-.72-.73-.72-1.25v-15.69L2.88,20.52v29.85Zm14.37-8.36l27.37,15.8,12.89-7.44V18.85L30.2,3.09,4.32,18.02l12.21,7.04c.45,.26,.72,.73,.72,1.25v15.69Z"/>
                <path class="cls-1"
                      d="M16.52,60.7l-1.44-2.5,28.06-16.2v-15.69c0-.52,.27-.99,.72-1.25l14.37-8.29,1.44,2.5-13.65,7.88v15.69c0,.52-.27,.99-.72,1.25l-28.78,16.61Z"/>
            </g>
            <g>
                <path class="cls-2"
                      d="M74.61,21.11c-1.51,0-2.27-.76-2.27-2.27s.75-2.27,2.27-2.27h24.04c1.51,0,2.27,.76,2.27,2.27s-.76,2.27-2.27,2.27h-24.04Zm.26,30.9c-1.51,0-2.27-.76-2.27-2.27s.76-2.27,2.27-2.27h24.04c1.51,0,2.27,.76,2.27,2.27s-.76,2.27-2.27,2.27h-24.04Zm2.27-1.68l-4.08-2.2,24.1-30.65,3.37,2.85-23.39,30Z"/>
                <path class="cls-2"
                      d="M123.62,52.34c-3.46,0-6.54-.78-9.26-2.33-2.72-1.56-4.86-3.69-6.41-6.41-1.55-2.72-2.33-5.81-2.33-9.26s.78-6.61,2.33-9.33c1.55-2.72,3.69-4.86,6.41-6.41,2.72-1.56,5.81-2.33,9.26-2.33s6.53,.78,9.23,2.33c2.7,1.55,4.83,3.69,6.38,6.41,1.55,2.72,2.35,5.83,2.4,9.33,0,3.46-.79,6.54-2.37,9.26-1.58,2.72-3.72,4.86-6.41,6.41-2.7,1.55-5.78,2.33-9.23,2.33Zm0-4.53c2.5,0,4.75-.58,6.74-1.75,1.99-1.17,3.54-2.76,4.66-4.79,1.12-2.03,1.69-4.34,1.69-6.93s-.56-4.91-1.69-6.96c-1.12-2.05-2.68-3.66-4.66-4.83-1.99-1.17-4.23-1.75-6.74-1.75s-4.75,.58-6.74,1.75c-1.99,1.17-3.55,2.78-4.7,4.83-1.14,2.05-1.72,4.37-1.72,6.96s.57,4.9,1.72,6.93c1.14,2.03,2.71,3.63,4.7,4.79,1.99,1.17,4.23,1.75,6.74,1.75Z"/>
                <path class="cls-2"
                      d="M165.51,52.34c-3.46,0-6.54-.78-9.26-2.33-2.72-1.56-4.86-3.69-6.41-6.41-1.55-2.72-2.33-5.81-2.33-9.26s.78-6.61,2.33-9.33c1.55-2.72,3.69-4.86,6.41-6.41,2.72-1.56,5.81-2.33,9.26-2.33s6.53,.78,9.23,2.33c2.7,1.55,4.83,3.69,6.38,6.41,1.55,2.72,2.35,5.83,2.4,9.33,0,3.46-.79,6.54-2.37,9.26-1.58,2.72-3.72,4.86-6.41,6.41-2.7,1.55-5.78,2.33-9.23,2.33Zm0-4.53c2.5,0,4.75-.58,6.74-1.75,1.99-1.17,3.54-2.76,4.66-4.79,1.12-2.03,1.69-4.34,1.69-6.93s-.56-4.91-1.69-6.96c-1.12-2.05-2.68-3.66-4.66-4.83-1.99-1.17-4.23-1.75-6.74-1.75s-4.75,.58-6.74,1.75c-1.99,1.17-3.55,2.78-4.7,4.83-1.14,2.05-1.72,4.37-1.72,6.96s.57,4.9,1.72,6.93c1.14,2.03,2.71,3.63,4.7,4.79,1.99,1.17,4.23,1.75,6.74,1.75Z"/>
                <path class="cls-2"
                      d="M207.31,52.34c-3.5,0-6.6-.77-9.3-2.3-2.7-1.53-4.82-3.66-6.35-6.38-1.53-2.72-2.3-5.83-2.3-9.33s.72-6.66,2.17-9.36c1.45-2.7,3.44-4.83,5.99-6.38,2.55-1.56,5.48-2.33,8.81-2.33s6.14,.75,8.58,2.24c2.44,1.49,4.33,3.55,5.67,6.19,1.34,2.64,2.01,5.64,2.01,9.01,0,.69-.22,1.24-.65,1.65-.43,.41-.99,.62-1.68,.62h-27.54v-4.15h28.05l-2.79,2.01c.04-2.5-.41-4.75-1.36-6.74-.95-1.99-2.3-3.54-4.05-4.66-1.75-1.12-3.83-1.68-6.25-1.68s-4.62,.58-6.48,1.75c-1.86,1.17-3.29,2.78-4.31,4.83-1.02,2.05-1.52,4.4-1.52,7.03s.57,4.97,1.72,7c1.14,2.03,2.71,3.63,4.7,4.79,1.99,1.17,4.28,1.75,6.87,1.75,1.55,0,3.12-.27,4.7-.81,1.58-.54,2.84-1.22,3.79-2.04,.48-.39,1.02-.59,1.62-.62,.6-.02,1.12,.14,1.55,.49,.56,.52,.85,1.08,.87,1.68,.02,.61-.23,1.12-.74,1.55-1.43,1.21-3.24,2.21-5.44,3.01-2.2,.8-4.32,1.2-6.35,1.2Z"/>
                <path class="cls-2"
                      d="M244.31,50.92c-.65,.3-1.25,.36-1.81,.16-.56-.19-1.02-.62-1.36-1.26l-14.45-29.93c-.3-.65-.35-1.25-.13-1.81,.22-.56,.65-.99,1.3-1.3,.65-.3,1.25-.36,1.81-.16,.56,.19,.99,.62,1.3,1.26l14.19,29.93c.35,.65,.45,1.25,.32,1.81-.13,.56-.52,.99-1.17,1.3Zm-7.19,16.52c-.35,0-.74-.09-1.17-.26-1.47-.65-1.88-1.68-1.23-3.11l20.93-46.13c.65-1.38,1.68-1.77,3.11-1.17,1.47,.61,1.88,1.62,1.23,3.05l-20.99,46.13c-.43,.99-1.06,1.49-1.88,1.49Z"/>
            </g>
        </g>
    </g>
</svg>