<?xml version="1.0" encoding="utf-8"?>
<!-- Generator: Adobe Illustrator 19.2.1, SVG Export Plug-In . SVG Version: 6.00 Build 0)  -->
<svg version="1.1" id="layer" xmlns="http://www.w3.org/2000/svg" xmlns:xlink="http://www.w3.org/1999/xlink" x="0px" y="0px"
	 viewBox="0 0 652 652" style="enable-background:new 0 0 652 652;" xml:space="preserve">
<style type="text/css">
	.st0{fill:#697D91;}
	.st1{fill:#FAC300;}
</style>
<g id="de">
	<g>
		<path class="st0" d="M404.7,318.4c0,0-1.6-0.5-1.6-2.1c0-1,0.5-1.6,1-2.1c36.5-22.9,58.9-64.6,58.9-113
			C463,129.3,404.7,71,332.8,71H178.6c-9.9,0-18.2,8.3-18.2,18.2v463.5c0,9.9,8.3,18.2,18.2,18.2H351c71.9,0,130.2-58.3,130.2-130.2
			C481.2,384.5,451.5,336.6,404.7,318.4z M336.4,478.3c0,2.1-2.1,4.2-4.2,4.2h-6.8c-2.1,0-4.2-2.1-4.2-4.2v-44.8h-40.6v44.8
			c0,2.1-2.1,4.2-4.2,4.2h-6.8c-2.1,0-4.2-2.1-4.2-4.2V373.6c0-2.1,2.1-4.2,4.2-4.2h6.8c2.1,0,4.2,2.1,4.2,4.2V420h40.6v-46.4
			c0-2.1,2.1-4.2,4.2-4.2h6.8c2.1,0,4.2,2.1,4.2,4.2V478.3z M336.4,167.9c0,2.1-2.1,4.2-4.2,4.2h-52.1v36.5h44.3
			c2.1,0,4.2,2.1,4.2,4.2v4.7c0,2.1-2.1,4.2-4.2,4.2h-44.3v46.4c0,2.1-2.1,4.2-4.2,4.2h-6.8c-2.1,0-4.2-2.1-4.2-4.2V163.2
			c0-2.1,2.1-4.2,4.2-4.2h63c2.1,0,4.2,2.1,4.2,4.2V167.9z"/>
		<path class="st1" d="M332.3,369.4h-6.8c-2.1,0-4.2,2.1-4.2,4.2V420h-40.6v-46.4c0-2.1-2.1-4.2-4.2-4.2h-6.8
			c-2.1,0-4.2,2.1-4.2,4.2v104.7c0,2.1,2.1,4.2,4.2,4.2h6.8c2.1,0,4.2-2.1,4.2-4.2v-44.8h40.6v44.8c0,2.1,2.1,4.2,4.2,4.2h6.8
			c2.1,0,4.2-2.1,4.2-4.2V373.6C336.4,371.5,334.3,369.4,332.3,369.4z"/>
		<path class="st1" d="M332.3,159h-63c-2.1,0-4.2,2.1-4.2,4.2v104.7c0,2.1,2.1,4.2,4.2,4.2h6.8c2.1,0,4.2-2.1,4.2-4.2v-46.4h44.3
			c2.1,0,4.2-2.1,4.2-4.2v-4.7c0-2.1-2.1-4.2-4.2-4.2h-44.3V172h52.1c2.1,0,4.2-2.1,4.2-4.2v-4.7C336.4,161.1,334.3,159,332.3,159z"
			/>
	</g>
</g>
</svg>
