<svg xmlns="http://www.w3.org/2000/svg" width="1024" height="477" version="1.0" viewBox="-1.5 -1.5 116.3 54.2"><path d="M17.6 25.7v.2h.2l.2.4.4.6 1 .8 1.5 1.2 1.5.6 1.5.4 1.4.1 1.5-.2 1.5-.6 1.6-.8 1.4-1.2.8-.9.5-.7.2-.3.1-.4-.2.1-.4.3-.7.4-.5.5-.6.4-1.6.6-1.8.7-1.8.3-2.1-.2-1.7-.3-1.5-.6-1.3-.7-.8-.4zm14 4.4h.4l.6-.2.8-.4 1.1-.6 1.3-1 1.6-1.7.8-1 1-1.2 1.3-1.3 1.6-1.1 1.6-.8 1.4-.4 1.7-.4 1.8-.2 1-.3 1.2-.2 1.4-.3 1.3-.5 1.3-.7.9-.7.4-.6-.3.1-.6.3-1 .3-1 .3-1.2.2-1.5.2-2 .2-1.7.2h-1.4l-1.2.2-1.2.2-1.3.5-1.5.7-1.4 1-1.5 1.7-.7 1L36 25l-1 1.3-1 1.3-.6 1-.7.7-.6.6zm18-8.4h.2l.2.1h1.5l1.3-.3 1.5-.5 2-.9 1-.5 1-.6 1.3-.9 1.4-.9 1.3-.9 1-.8 1-.6.7-.4.2-.3h.2l.7-.6 1-.8 1.3-.8 1.5-1 1.7-1 1.6-1 1.6-1 1.5-.8 2.3-1 2.2-1 2.2-.6 2.4-.6 2.8-.4h2.4l1.9.1 1.5.4 1.1.6 1 .4.9.6 1 .7 1 1 .3.3.1-.3V6.2l-.4-.8-.4-.8-.8-1-1-1-1-.8-1.5-.8-1.6-.6L91 .2 89.4 0H87l-1 .2-1.6.3-1.8.5-2.1.7-2.3 1L75 4.2 72.4 6l-2.2 1.5-1.7 1.3-1 .8-1.4 1.2-1.5 1.1-1.4 1-1.1 1-.8.7-1 .9-1.5 1-1.5 1.3-1.7 1.1-1.2.8-1 .6-1 .5-1 .3-1.1.5-.3.1h-.2l-.1.1zM92.5 8.5l.4.3.7.1 1.2.1h1.5l1.3-.3 1.1-.2 1.2-.3h2.6l1.5.3 1.3.5 1 .9.8.8.5.6.5.7.3.7.5 1.2.5 1.6.3 2v2.3l-.1.3v.5h.9l.4-.3.3-.3.2-.2.2-.4v-2.2l-.2-.2v-.2h.2l.3.2.1.2.3.1.4 1 .5 1.5.1 1.6-.3 1.1-.6 1-.8 1-.7.3-.5.2h-.5l-.4.2h-.5l-.2.2-.1.1-.1.1-.2.1v.5l-.2.1-.1.1-.1.3h-.1l-.2.4v.3l-.2.5v.8l-.3 1.2-.4 1-.7 1.3-.7 1.6-.7 1.4-.7 1.1-.9 1.4-1 1-.7.7-.5.4-.6.3-.6.1-1 .2h-1.4l-1.2-.2H95l-.8-.2h-.8l-.8.2-1.1.7-.8.5-1 .7-1.1.6-1.6.6h-2l-.6-.2h.5l.4-.2.7-.4.8-.4.9-.6.8-.7.8-.7.9-1 .8-.7 1-.6 1-.2 1.6.1 1.4.2.8.2h2l.8-.3.8-.5.7-1 .8-1.5.7-1.1.4-1 .6-1.4.6-1.8.3-1.2.2-1.3v-1.6l.3-.8.6-1 .6-1 .3-1.3.1-1.5V17l-.4-1.5-.7-1.5-1.2-1.4-1.4-1-1.3-.7-1.3-.2-1.5-.1H95l-1.6-.4-.5-.3-.5-.5-.2-.5-.3-.4v-.4h.1l.2.2zm-.4 5-.2.3-.3.3-.6.7-.5.8-.4.8-.2 1 .3 1 .8.9.4.2.5.4.3.3.4.6.1.7-.2.9-.5 1-.6.5-.7.2-.6.1H89l-.3-.3-.7-.3-.7-.7-.6-1-.4-1.3-.2-1.8.3-1.3.6-1.3.8-1 .9-.6 1-.6.6-.4zm2.7 10.3.3.1.6.3.7.4.7.3.5.3h.2l.1.2.1.2.1.3v1l-.5 1-.8.7-.9.3-.7-.2-.5-.2-.4-.2-.2-.3-.3-.6-.3-.8.1-1.2.3-.5.2-.4.3-.4.3-.2v-.1zm-13.2 27 .1-.2.5-.1.8-.3.8-.6 1.5-1.4 1.7-1.8 1-1 1.1-.7 1-.4.8-.4h.5l1-.2 1.4.1h-.4l-.7.4-1 .5-1 .9-1.4 1.2-1.3 1.4-1.5 1.3-1.4.7-1.3.4-1.3.1z" style="fill:#000;fill-opacity:1;fill-rule:nonzero;stroke:#000;stroke-width:.12274014;stroke-linecap:butt;stroke-linejoin:round;stroke-miterlimit:10;stroke-dasharray:none;stroke-opacity:1"/><path d="M3.7 34H13l.8.4.8.4.7.7.5 1 .1 1.2-.2 1.6-1 1.3-1.3 1-1.9.4 1.3.4 1 .7.7 1 .2 1.2-.2 1.6-.7 1.4-1 1-1.5.7-1.6.5-1.9.1-7.7.1zm1.6 13.6h2.4l1-.3.8-.5.6-.7.1-.8-.2-.9-.6-.5-.9-.2-1.4-.1h-1zm1.4-7h1.7l1.3-.2.9-.4.6-.6.2-.8-.2-.8-.5-.4-1-.3H7.6zM20 33.9h4.6L21 50.7h-4.6zm18.2 3.8-1-.4L36 37h-2.6l-.8.1-.7.3-.5.4-.2.7.2.7.5.5.8.3.8.5 1 .3 1 .5.9.7.7.8.6 1v3l-.6 1.3-1 1-1 .7-1.3.6-1.3.4-1.6.2h-3.2l-1.8-.4-1.7-.4 1-3.5 1.2.6 1.5.3 1.5.1h1l1-.2.8-.3.7-.6.2-1-.2-.6-.6-.6-.9-.5-1-.4-1-.5-1.1-.6-1-.8-.5-1-.2-1.4.2-1.6.6-1.4.9-1 1.3-.8 1.3-.5 1.6-.2 1.6-.1h2l1.8.3 1.4.4zm9.5 13.4-2-.3-1.8-.5-1.4-.8-1-1.2-.7-1.3-.5-1.3-.1-1.5.2-2.7.6-2.3 1-2 1.6-1.4 1.7-1.3 2.2-.7 2.7-.2 2.2.2 1.7.6 1.4.8 1 1.1.7 1.3.4 1.4v1.5l-.2 2.5-.5 2.3-1 2-1.5 1.6-1.8 1.1-2.2.8zM50 36.9l-1.4.2-1.1.7-1 1-.6 1.1-.5 1.3-.4 1.3v2.6l.4 1 .7.8.8.6 1.3.2 1.4-.2 1.1-.7 1-.9.5-1.2.6-1.2.2-1.4.1-1.3v-1.2l-.4-1-.6-.9-1-.6zm11.8-3h5.7L71 45.6l2.4-11.7h4.3L74 50.7h-5.6l-3.6-11.6-2.4 11.6h-4.3z" style="fill:#e8003d;fill-opacity:1;fill-rule:nonzero;stroke:#e8003d;stroke-width:.12274014;stroke-linecap:butt;stroke-linejoin:round;stroke-miterlimit:10;stroke-dasharray:none;stroke-opacity:1"/></svg>