<svg xmlns="http://www.w3.org/2000/svg" xml:space="preserve" viewBox="0 0 168.2 64.4"><path d="M34.3 9.3q.5 0 .8-.3t.4-.8q0-.3-.4-.6l-.4-.3-.4-.2q-.3 0-.4-.3l-.4-.3a1 1 0 0 1-.4-.8q0-.7.5-1l1.1-.4h.5l.6.2-.1.5-1-.2h-.4L34 5l-.3.3V6l.3.2.4.3.4.2.8.6.3.4.1.5q0 .8-.5 1.1a2 2 0 0 1-1.2.4l-1.2-.2V9q.5.3 1.2.3M40 6.4l-.8-.2q-.6 0-1 .4t-.4 1.2.4 1q.4.6 1 .6l.8-.2v.4l-.9.2q-.8 0-1.4-.7-.4-.5-.4-1.4t.5-1.4 1.4-.6h.6l.2.1zM41.5 4h.4v2.5l.5-.5q.3-.2.8-.2.7 0 1 .4t.3 1.2v2.3H44V6.9l-.2-.4q0-.3-.7-.3t-.9.4l-.3 1v2h-.4zm8.7 5.7h-.6l-1-3.3-1.1 3.3h-.6l-1.2-3.9h.5l1 3.4 1.1-3.4h.6l1 3.4 1-3.4h.5zm5-.1-1 .2q-1 0-1.4-.6t-.4-1.4.4-1.5q.4-.5 1.2-.6t1.1.6.4 1.3V8h-2.6q0 .6.3 1t1 .4h.5l.5-.2zM55 7.5q0-.6-.2-1-.2-.3-.8-.3a1 1 0 0 0-.8.4q-.3.3-.3.9zm2.5-2.7H57v-.6h.5zm-.5 1h.5v3.9H57zm1.9 3.5 2.3-3H59v-.5h2.7v.5l-2.3 3h2.3v.4H59zm6.8.3-1 .2q-1 0-1.4-.6t-.4-1.4.4-1.5q.4-.5 1.2-.6t1.2.6q.3.6.3 1.3V8h-2.6q0 .6.3 1t1 .4h.5l.5-.2zm-.2-2.1q0-.6-.2-1-.3-.3-.8-.3a1 1 0 0 0-.8.4q-.3.3-.3.9zm2-.8v-.8h.4v.7l.4-.6.6-.2h.3v.5h-.8l-.2.5-.2.5v2.4h-.5zM71 4.8h-.4v-.6h.5zm-.4 1h.4v3.9h-.4zm2.9 3.6.6-.2q.3-.2.3-.5 0-.4-.3-.6l-.6-.3-.7-.4-.2-.3v-.3q0-.6.3-.8.4-.3.9-.2h.4l.5.1v.4l-.8-.1h-.6l-.2.3V7l.5.4.4.1.6.4q.3.3.3.8a1 1 0 0 1-.4.8q-.4.3-1 .3l-1-.2V9q.5.3 1 .3m5.3-2.9-.8-.2q-.7 0-1 .4t-.4 1.2.3 1q.4.6 1 .6l1-.2v.4l-1 .2q-1 0-1.4-.7-.5-.5-.5-1.4t.6-1.4 1.3-.6h.6l.2.1h.1zM80.2 4h.5v2.5l.5-.5q.3-.2.7-.2.8 0 1 .4.3.5.3 1.2v2.3h-.5V6.9l-.1-.4q-.2-.3-.8-.3t-.8.4l-.3 1v2h-.5zm7.4 5.6-1.1.2q-1 0-1.4-.6t-.4-1.4.5-1.5q.3-.5 1.1-.6t1.2.6.3 1.3V8h-2.6q0 .6.3 1t1 .4h.6l.4-.2zm-.3-2.1q0-.6-.2-1-.2-.3-.7-.3a1 1 0 0 0-.9.4q-.3.3-.3.9zm4.5-3.1h2.6V5h-2v1.8h1.9v.5h-2v2h2.2v.5h-2.7zm4.8.4H96v-.6h.5zm-.5 1h.5v3.9H96zm5.3 3.9h-.5V9q-.3.7-1.2.7t-1.2-.6-.4-1.4q0-.9.4-1.5t1.2-.5h.5l.4.2.3.5V4h.5zm-2.7-1.4.2.5q0 .3.3.4l.6.2q.3 0 .5-.2.3 0 .4-.4l.2-1v-.6l-.6-.9-.5-.1-.6.1-.3.4-.2.5zm7.5 1.1q0 .8-.4 1.3t-1.4.6l-1.2-.2v-.5q.5.3 1.2.3.4 0 .7-.2.3 0 .4-.4l.1-.6v-.8q-.3.8-1.1.8t-1.3-.7l-.2-.6-.1-.6q0-.9.4-1.5.3-.6 1.2-.5h.6l.6.5v-.5h.4zm-2.5-.6q.2.4.8.5t1-.5l.2-1q0-.8-.3-1.2-.1-.4-.9-.4h-.5l-.4.5-.1.5v.5q-.1.6.2 1m6.7.9-1 .2q-1 0-1.4-.6t-.4-1.4.4-1.5q.4-.5 1.2-.6t1.2.6q.3.6.3 1.3V8h-2.6q0 .6.3 1t1 .4h.5l.5-.2zm-.2-2.1q0-.6-.2-1-.2-.3-.8-.3a1 1 0 0 0-.8.4q-.3.3-.3.9zm2-.8v-.9h.4v.7l.2-.3.2-.2.4-.2h.5q.7-.1 1 .4.3.3.3 1v2.4h-.5V7.3q0-.5-.2-.8t-.7-.3-.9.4l-.2.5v2.5h-.5zm4.9-.3q.4-.6 1.4-.6t1.3.6q.4.5.4 1.4t-.4 1.3q-.4.7-1.4.7t-1.3-.7-.4-1.3.4-1.4m.4 2.5q.3.5 1 .5a1 1 0 0 0 1-.5l.2-1.1-.3-1.2q-.3-.4-1-.4a1 1 0 0 0-.9.4l-.3 1.2q0 .6.3 1m4.9.6.6-.2q.3-.2.3-.5 0-.4-.3-.6l-.7-.3-.6-.4-.2-.3v-.3q0-.6.3-.8.4-.3.9-.2h.4l.5.1v.4l-.9-.1h-.5l-.2.3V7l.5.4.4.1.6.4q.3.3.3.8a1 1 0 0 1-.4.8q-.4.3-1 .3l-1-.2V9q.4.3 1 .3m3.6.1.5-.2q.3-.2.3-.5 0-.4-.3-.6l-.7-.3-.6-.4-.2-.3v-.3q0-.6.3-.8.4-.3.9-.2h.4l.5.1v.4l-.9-.1h-.5l-.2.3V7l.5.4.4.1.6.4q.3.3.3.8a1 1 0 0 1-.4.8q-.4.3-1 .3l-1-.2V9q.4.3 1 .3m5.4.3-1.1.2q-.8 0-1.4-.6-.3-.6-.4-1.4 0-.9.5-1.5t1.1-.6q.9 0 1.2.6.4.6.4 1.3V8h-2.7q0 .6.4 1 .3.4 1 .4h.5l.5-.2zm-.2-2.1q0-.6-.3-1-.2-.3-.7-.3a1 1 0 0 0-.8.4q-.4.3-.4.9zm1.9-.8v-.9h.5v.7l.2-.3.2-.2.4-.2h.4q.8-.1 1 .4.4.3.4 1v2.4h-.5V7.3q0-.5-.2-.8t-.7-.3-1 .4l-.1.5v2.5h-.5zm5.5 2.7.6-.2q.3-.2.3-.5 0-.4-.3-.6l-.6-.3-.7-.4-.2-.3v-.3q0-.6.3-.8.4-.3.9-.2h.4l.5.1v.4l-.9-.1h-.5l-.2.3-.1.3V7l.6.4.4.1.6.5q.3.2.3.7a1 1 0 0 1-.4.8q-.4.3-1 .3t-1-.2V9q.4.3 1 .3m5.3-2.9-.8-.2q-.7 0-1 .4-.5.4-.5 1.2t.4 1q.4.6 1 .6l.9-.2v.4l-1 .2q-.9 0-1.3-.7-.5-.5-.5-1.4t.5-1.4 1.4-.6h.6l.2.1h.1zm1.4-2.4h.5v2.5l.5-.5q.3-.2.7-.2.8 0 1 .4.3.5.3 1.2v2.3h-.5V6.9l-.1-.4q-.2-.3-.8-.3t-.9.4l-.2 1v2h-.5zm7 5q-.2.4-.5.6l-.7.2q-.4 0-.7-.2l-.4-.3-.2-.6q0-.5.2-.8l.6-.4.8-.2h.8v-.2q0-1-.8-1l-1.1.4V6l1-.3q1.4 0 1.4 1.5v2.5h-.4zm0-1.3h-.8l-.6.2q-.3 0-.4.3l-.2.5q0 .3.3.5l.5.2.7-.2.3-.4.1-.5zm2.5-1.4h-.7v-.5h.7V5l.2-.5q0-.3.3-.4l.6-.1h.4v.4h-.8l-.1.3v1.1h.8v.5h-.9v3.4h-.5zm4.4 0h-.8v2.4l.1.5.4.2.4-.1v.4h-1l-.3-.3V9l-.1-.5V6.3h-.7v-.5h.7V5l.5-.2v1.1h.8zm-122.7 9h-.7a2 2 0 0 0-1.5.6q-.6.7-.6 1.7t.6 1.6q.4.6 1.5.6h.6l.6-.2v.4l-.5.2h-.7q-1.1 0-2-.7-.6-.7-.6-2 0-1.1.7-2 .7-.6 2-.7h.5l.6.2v.5zm2.4 1.6q.4-.6 1.4-.6t1.3.6.5 1.4-.5 1.3-1.3.7-1.4-.7q-.4-.5-.4-1.3t.4-1.4m.4 2.5q.4.5 1 .5a1 1 0 0 0 1-.5l.2-1.1L41 17q-.3-.4-1-.4a1 1 0 0 0-.9.4l-.3 1.2q0 .6.3 1m4.2-2v-.9h.5v.7l.1-.3.3-.2.3-.2h.5q.7-.1 1 .4t.3 1v2.5h-.5v-2.4q0-.5-.2-.9-.1-.3-.7-.3t-.8.5l-.2.4v2.7h-.6zm5.1-.4h-.8v-.5h.8v-.8l.1-.6.3-.3.6-.1h.5v.4H49l-.2.3v1.1h.8v.4H49v3.5h-.5zm5.3 3.2-1 .3q-1 0-1.4-.6t-.4-1.4.4-1.5 1.2-.6q.8 0 1.2.6t.3 1.3v.3h-2.6q0 .6.3 1t1 .4h.5l.5-.2zm-.2-2q0-.6-.2-1l-.8-.4a1 1 0 0 0-.8.5q-.3.3-.3.9zm-.8-3.2h.6l-1 1.1H52zm5.8 5.4h-.4v-.6q-.4.6-1.3.7t-1.1-.6-.4-1.4q0-.9.3-1.5.5-.5 1.2-.5h.6l.3.2.3.5v-2.5h.5zm-2.7-1.4.2.5.4.4.5.2.6-.2.3-.4q.3-.5.3-1l-.1-.6-.5-.9-.6-.1-.5.1-.4.4-.2.5zm7 1.2-1 .3q-1 0-1.4-.6t-.4-1.4.4-1.5 1.2-.6q.8 0 1.1.6t.4 1.3v.3h-2.6q0 .6.3 1t1 .4h.5l.5-.2zm-.2-2q0-.6-.2-1l-.8-.4a1 1 0 0 0-.8.5q-.3.3-.3.9zm-.8-3.2h.6l-1 1.1h-.3zm2.8 2.4v-.8h.4v.7l.4-.6.6-.2h.3v.5h-.8l-.2.5-.2.4v2.5h-.5zm5.3 2.4-.5.5-.8.2-.6-.2-.4-.2-.2-.7q0-.5.2-.8l.6-.4.8-.2h.8v-.2q0-1-.8-1a2 2 0 0 0-1.2.4v-.5l1.2-.3q1.3 0 1.3 1.5v2.5H70zm0-1.4H69l-.6.2q-.3 0-.4.3-.3.1-.2.5 0 .3.2.5l.6.2.6-.2.4-.4.1-.5v-.6m4-1.4h-1v2.4l.2.5.4.2.4-.1v.4h-1l-.3-.3v-3.1h-.8v-.4h.7v-1l.5-.1v1h.9zm1.9-1.5H75v-.6h.5zm-.5 1h.5v3.9H75zm2.4.6q.4-.6 1.3-.6t1.4.6.4 1.4-.4 1.3-1.4.7-1.3-.7q-.5-.5-.5-1.3t.5-1.4m.4 2.5q.3.5 1 .5a1 1 0 0 0 .9-.5q.3-.5.3-1.1l-.3-1.2q-.3-.4-1-.4a1 1 0 0 0-1 .4l-.2 1.2q0 .6.3 1m4.1-2.1v-.9h.5v.7l.2-.3.2-.2.4-.2h.5q.7-.1 1 .4t.3 1v2.5h-.5v-2.4q0-.5-.2-.9-.2-.3-.7-.3-.6 0-.9.5l-.2.4v2.7H82zm8.2 2.7.6-.2.2-.5q0-.4-.3-.6l-.6-.3-.6-.4-.3-.3v-.3q-.1-.6.4-.8.3-.3.8-.3h.4l.6.2v.4l-1-.2-.5.2-.2.2v.5l.6.3.3.2.7.4.2.8a1 1 0 0 1-.4.8l-.9.3-1-.2v-.5q.3.3 1 .3m5.8-.6v.9h-.5v-.7l-.2.2-.2.3-.3.2h-.5q-.7.1-1-.4-.5-.4-.3-1v-2.5h.4v2.4q0 .5.2.8t.7.3h.6l.3-.4.2-.5v-2.5h.5zm2.2-4h-.5v-.6h.5zm-.5 1h.5v3.9h-.5zm3 3.6.6-.2.2-.5q0-.4-.3-.6l-.6-.3-.6-.4-.3-.3v-.3q0-.6.4-.8.3-.3.8-.3h.4l.6.2v.4l-1-.2-.5.2-.2.2v.5l.6.3.3.2.7.4.3.8a1 1 0 0 1-.5.8l-.9.3-1-.2v-.5q.4.3 1 .3m3.5 0 .6-.2.2-.5q0-.4-.3-.6l-.6-.3-.6-.4-.3-.3v-.3q0-.6.4-.8.3-.3.8-.3h.4l.6.2v.4l-1-.2-.5.2-.2.2v.5l.6.3.3.2.7.4.3.8a1 1 0 0 1-.5.8l-.9.3-1-.2v-.5q.4.3 1 .3m5.3.1-1 .3q-1 0-1.4-.6t-.4-1.4.4-1.5 1.2-.6q.8 0 1.1.6t.4 1.3v.3h-2.6q0 .6.3 1t1 .4h.5l.5-.2zm-.2-2q0-.6-.2-1l-.8-.4a1 1 0 0 0-.8.5q-.3.3-.3.9zm-73 7.8h-.7a2 2 0 0 0-1.5.6q-.6.7-.6 1.7t.6 1.6q.4.6 1.5.6h.6l.6-.2v.4l-.5.2h-.7q-1.1 0-2-.7-.6-.7-.6-2 0-1.1.7-2 .7-.6 2-.7h.5l.6.2v.5zm2.4 1.6q.4-.6 1.4-.6t1.3.6.5 1.4-.5 1.3-1.3.7-1.4-.7q-.4-.5-.4-1.3t.4-1.4m.4 2.5q.4.5 1 .5a1 1 0 0 0 1-.5l.2-1.1-.3-1.2q-.3-.4-1-.4a1 1 0 0 0-.9.4l-.3 1.2q0 .6.3 1m4.2-2.1v-.9h.5v.7l.1-.3.3-.2.3-.2h.5q.7-.1 1 .4t.3 1v2.5h-.5v-2.4q0-.5-.2-.9-.1-.3-.7-.3t-.8.5l-.2.4v2.7h-.6zm5.1-.4h-.8v-.5h.8V26l.1-.6.3-.3.6-.2h.3l.2.1v.4H49l-.2.4v1h.8v.4H49v3.5h-.5zm5.3 3.3-1 .2q-1 0-1.4-.6t-.4-1.4.4-1.5 1.2-.6q.8 0 1.2.6t.3 1.3v.3h-2.6q0 .6.3 1t1 .4h.5l.5-.2zm-.2-2.1q0-.6-.2-1l-.8-.4a1 1 0 0 0-.8.5q-.3.3-.3.9zm5 2.2h-.4V30q-.4.6-1.3.7t-1.1-.6-.4-1.4q0-.9.3-1.5.5-.5 1.2-.5h.6l.3.2.3.5V25h.5zm-2.7-1.4.2.5.4.4.5.2.6-.2.3-.4q.3-.5.3-1l-.1-.6-.5-.9-.6-.1-.5.1-.4.4-.2.5zm7 1.3-1 .2q-1 0-1.4-.6t-.4-1.4.4-1.5 1.2-.6q.8 0 1.1.6t.4 1.3v.3h-2.6q0 .6.3 1t1 .4h.5l.5-.2zm-.2-2.1q0-.6-.2-1l-.8-.4a1 1 0 0 0-.8.5q-.3.3-.3.9zm2-.8v-.8h.4v.7l.4-.6.6-.2h.3v.5h-.8l-.2.5-.2.4v2.5h-.5zm5.3 2.3-.5.6-.8.2-.6-.2-.4-.2-.2-.7q0-.5.2-.8l.6-.4.8-.2h.8v-.2q0-1-.8-1a2 2 0 0 0-1.2.4V27l1.2-.3q1.3 0 1.3 1.5v2.5H70zm0-1.3H69l-.6.2q-.3 0-.4.3-.3.1-.2.5 0 .3.2.5l.6.2.6-.2.4-.4.1-.5v-.6m2 1.6 2.3-3h-2.3v-.5h2.8v.4l-2.3 3h2.3v.5h-2.8zm4.7-4.5h-.5v-.6h.5zm-.5 1h.5v3.9h-.5zm2.4.6q.5-.6 1.4-.6t1.3.6.5 1.4q0 .8-.5 1.3t-1.3.7-1.4-.7q-.4-.5-.4-1.3t.4-1.4m.4 2.5q.3.5 1 .5a1 1 0 0 0 1-.5l.2-1.1-.3-1.2q-.3-.4-1-.4a1 1 0 0 0-.9.4l-.3 1.2q0 .6.3 1m4.3-2.1-.1-.9h.5v.7l.1-.3.3-.2.3-.2h.5q.7-.1 1 .4t.3 1v2.5h-.5v-2.4q0-.5-.2-.9-.1-.3-.7-.3t-.8.5l-.2.4v2.7h-.6zm7.3 2.9-1.2.2q-.9 0-1.3-.6t-.4-1.4.4-1.5 1.2-.6 1.2.6q.3.6.3 1.3v.3H88q0 .6.3 1t1 .4h.5l.5-.2zm-.3-2.1q0-.6-.2-1l-.8-.4a1 1 0 0 0-.8.5q-.3.3-.3.9zm5.7 1.8q.5 0 .8-.3t.4-.8q0-.3-.4-.6l-.4-.3-.4-.2q-.2 0-.5-.3l-.4-.3-.3-.8q0-.6.5-1l1.1-.3h.5l.6.1-.1.5-1-.2h-.4l-.3.2-.3.3-.1.4v.4l.4.2.3.3.5.2.8.6.3.4.1.5q0 .9-.6 1.1l-1.1.4-1.2-.2V30q.5.3 1.2.3m4.6.4h-.6l-1.3-3.9h.5l1.1 3.4 1.1-3.4h.5zm3-4.9h-.4v-.6h.4zm-.4 1h.4v3.9h-.4zm1.9 3.5 2.3-3h-2.2v-.5h2.7v.4l-2.3 3h2.3v.5h-2.8zm3.9 0 2.3-3h-2.2v-.5h2.7v.4l-2.3 3h2.3v.5h-2.8zm6.8.3-1.1.2q-.9 0-1.3-.6t-.4-1.4.4-1.5 1.2-.6 1.1.6.4 1.3v.3h-2.6q0 .6.3 1t1 .4h.5l.5-.2zm-.2-2.1q0-.6-.3-1-.2-.3-.7-.4a1 1 0 0 0-.8.5q-.3.3-.3.9zm2-.8v-.8h.4v.7l.4-.6.6-.2h.3v.5h-.8l-.3.5-.1.4v2.5h-.5zm5.3 2.3q-.2.5-.6.6l-.7.2-.6-.2-.4-.2q-.3-.4-.2-.7 0-.5.2-.8.1-.3.6-.4l.7-.2h.9v-.2q0-1-.9-1l-1 .4V27l1-.3q1.5 0 1.4 1.5v2.5h-.4zm0-1.3h-.8l-.6.2q-.3 0-.4.3-.2.1-.2.5 0 .3.2.5l.6.2.6-.2.4-.4.1-.5v-.6m-86.2 7.6h-.7a2 2 0 0 0-1.5.6q-.6.7-.6 1.7t.6 1.6q.4.6 1.5.6h.6l.6-.2v.4l-.5.2h-.7q-1.1 0-2-.7-.6-.7-.6-2 0-1.1.7-2 .7-.6 2-.7h.5l.6.2v.5zm2.4 1.6q.4-.6 1.4-.6t1.3.6q.5.5.5 1.4t-.5 1.4-1.3.6q-1 0-1.4-.6t-.4-1.4q0-.9.4-1.4m.4 2.5q.4.5 1 .5a1 1 0 0 0 1-.5l.2-1.1L41 38q-.3-.4-1-.4a1 1 0 0 0-.9.4l-.3 1.2q0 .6.3 1m4.2-2v-.9h.5v.7l.1-.2.3-.3.3-.2h.5q.7-.1 1 .4t.3 1v2.4h-.5v-2.3q0-.5-.2-.8-.1-.4-.7-.4t-.8.5l-.2.4v2.7h-.6zm5.1-.4h-.8v-.5h.8v-.8l.1-.5.3-.4.6-.1h.5v.4H49l-.2.4v1h.8v.4H49v3.5h-.5zm5.3 3.2-1 .3q-1 0-1.4-.6t-.4-1.5.4-1.4q.5-.5 1.2-.6.8 0 1.2.6t.3 1.3v.3h-2.6q0 .6.3 1t1 .4h.5l.5-.3zm-.2-2q0-.6-.2-1l-.8-.4a1 1 0 0 0-.8.5q-.3.3-.3.9zm5 2.2h-.4v-.6q-.4.6-1.3.7t-1.1-.6-.4-1.4q0-.9.3-1.5.5-.5 1.2-.5h.6l.3.2.3.5v-2.5h.5zm-2.7-1.4.2.5.4.4.5.2.6-.2.3-.4q.3-.5.3-1l-.1-.6-.5-.9-.6-.1-.5.1-.4.4-.2.5zm7 1.2-1 .3q-1 0-1.4-.6t-.4-1.5.4-1.4q.5-.5 1.2-.6.8 0 1.1.6t.4 1.3v.3h-2.6q0 .6.3 1t1 .4h.5l.5-.3zm-.2-2q0-.6-.2-1l-.8-.4a1 1 0 0 0-.8.5q-.3.3-.3.9zm2-.8v-.8h.4v.7l.4-.6.6-.2h.3v.5h-.8l-.2.5-.2.5v2.4h-.5zm5.3 2.4-.5.5-.8.2-.6-.2-.4-.3-.2-.6q0-.5.2-.8l.6-.4.8-.2h.8v-.2q0-1-.8-1a2 2 0 0 0-1.2.4v-.5l1.2-.3q1.3 0 1.3 1.5v2.5H70zm0-1.4H69l-.6.2q-.3 0-.4.3-.3.1-.2.5 0 .3.2.5l.6.2.6-.2.4-.4.1-.4v-.7m2 1.6 2.3-3h-2.3v-.5h2.8v.5l-2.3 3h2.3v.4h-2.8zm4.7-4.5h-.5v-.6h.5zm-.5 1h.5v3.9h-.5zm5.3 3v.9h-.5v-.7l-.1.2-.3.3-.3.2h-.5q-.7.1-1-.4t-.3-1v-2.5h.5v2.4q0 .5.2.8.1.3.7.3h.5l.4-.4.1-.5.1-.5v-2h.5zm1.8-2.1-.1-.9h.5v.7l.1-.2.3-.3.3-.2h.5q.7-.1 1 .4t.3 1v2.4h-.5v-2.3q0-.5-.2-.8-.1-.4-.7-.4t-.8.5l-.2.4v2.7h-.6zm8 2.7.6-.2.2-.5q0-.4-.2-.6l-.7-.3-.6-.4-.2-.3-.1-.3q0-.6.4-.8.3-.3.8-.3h.5l.5.2v.4l-.9-.2-.6.2-.1.2-.1.3v.2l.6.3.3.2.7.4q.3.3.3.8a1 1 0 0 1-.5.8q-.3.3-.9.3l-1-.2v-.5q.4.3 1 .3m4.1.3h-.5l-1.3-3.9h.5l1 3.4 1.2-3.4h.5zm3.1-4.9h-.5v-.6h.5zm-.5 1h.5v3.9h-.5zm1.9 3.5 2.3-3h-2.2v-.5h2.7v.5l-2.3 3h2.3v.4h-2.8zm4.3-2.6v-.8h.4v.7l.4-.6.6-.2h.3v.5h-.8l-.3.5-.1.5v2.4h-.5zm5.2 2.4q-.1.3-.5.5l-.7.2q-.5 0-.6-.2l-.4-.3-.3-.6q0-.5.3-.8l.5-.4.8-.2h.8v-.2q.1-1-.8-1l-1.1.4v-.5l1.1-.3q1.4 0 1.4 1.5v2.5h-.5zm0-1.4h-.8l-.5.2q-.2 0-.5.3l-.1.5q0 .3.2.5l.6.2.6-.2.4-.4V40l.1-.4zM34.2 61.8q.5 0 .9-.2.3-.3.3-.9 0-.3-.4-.6l-.3-.3-.5-.2-.4-.3-.4-.3a1 1 0 0 1-.4-.8q0-.6.5-1a2 2 0 0 1 1.2-.4h.5l.5.2v.5l-1-.2h-.4l-.4.2-.2.3-.1.4v.4l.3.2.4.3.5.2.8.6.3.4v.5q0 .9-.5 1.1a2 2 0 0 1-1.2.4l-1.1-.2v-.6q.5.3 1.1.3m7.2.4H41l-1-3.3-1.1 3.3h-.6L37 58.3h.5l1 3.4 1-3.4h.6l1 3.4 1.1-3.4h.5zm3-4.9h-.5v-.6h.5zm-.5 1h.5v3.9h-.5zm3 3.6.6-.2.2-.5q0-.4-.2-.6l-.7-.3-.6-.4-.2-.3-.1-.3q0-.6.4-.8.3-.3.8-.3h.5l.5.2v.4l-.9-.2-.6.2-.1.2-.1.3v.2l.6.3.3.2.7.4q.3.3.3.8a1 1 0 0 1-.5.8q-.3.3-.9.3l-1-.2v-.5q.4.3 1 .3m3.5 0 .6-.2.2-.5q0-.4-.2-.6l-.7-.3-.6-.4-.2-.3-.1-.3q0-.6.4-.8.3-.3.8-.3h.5l.5.2v.4l-.9-.2-.6.2-.1.2-.1.3v.2l.6.3.3.2.7.4q.3.3.3.8a1 1 0 0 1-.5.8q-.3.3-.9.3l-1-.2v-.5q.4.3 1 .3m8.6-4.6h-.7a2 2 0 0 0-1.5.6q-.6.7-.6 1.7t.5 1.6q.6.6 1.6.6h.6l.6-.2v.4l-.6.2h-.6q-1.2 0-2-.7-.6-.7-.6-2 0-1.1.7-2 .6-.6 2-.7h.5l.6.2v.5zm2.6 1.6q.4-.6 1.3-.6t1.4.6q.4.5.4 1.4t-.4 1.4-1.4.6q-.9 0-1.3-.6t-.5-1.4q0-.9.5-1.4m.4 2.5q.3.5 1 .5a1 1 0 0 0 .9-.5q.3-.5.3-1.1l-.3-1.2q-.4-.4-1-.4a1 1 0 0 0-1 .4l-.2 1.2q0 .6.3 1m4.2-2.1v-.9h.4v.7l.2-.2.2-.3.4-.2h.5q.7-.1 1 .4t.3 1v2.4h-.5v-2.3q0-.5-.2-.8t-.7-.4-.9.5l-.2.4v2.7h-.5zm5.1-.4h-.8v-.5h.8v-.8l.1-.5q0-.3.3-.4l.6-.1h.4v.4H72l-.2.4v1h.8v.4h-.8v3.5h-.5zm5.3 3.2-1.1.3q-.8 0-1.4-.6-.4-.6-.4-1.5t.5-1.4 1.2-.6q.8 0 1.1.6t.4 1.3v.3h-2.6q0 .6.3 1t1 .4h.5l.5-.3zm-.2-2q0-.6-.3-1-.2-.3-.7-.4a1 1 0 0 0-.8.5q-.3.3-.3.9zm5 2.2h-.5v-.6q-.3.7-1.2.7t-1.2-.6-.4-1.4q0-.9.4-1.5t1.2-.5h.5l.4.2.3.5v-2.5h.5zm-2.7-1.4.2.5q0 .3.3.4l.6.2q.3 0 .5-.2.3 0 .4-.4l.2-1v-.6l-.6-.9-.5-.1-.6.1-.3.4-.2.5zm7 1.2-1.1.3q-.8 0-1.4-.6-.3-.6-.4-1.5 0-.8.5-1.4t1.1-.6q.9 0 1.2.6.4.6.4 1.3v.3h-2.7q0 .6.4 1 .3.4 1 .4h.5l.5-.3zm-.2-2q0-.6-.3-1-.2-.3-.7-.4a1 1 0 0 0-.9.5q-.3.3-.3.9zm2-.8v-.8h.4v.7l.4-.6.6-.2h.3v.5h-.8l-.3.5-.1.5v2.4h-.5zm5.2 2.4q-.1.3-.5.5l-.7.2q-.5 0-.6-.2l-.4-.3-.3-.6q0-.5.3-.8l.5-.4.8-.2h.8v-.2q.1-1-.8-1l-1.1.4v-.5l1.1-.3q1.4 0 1.4 1.5v2.5h-.5zm0-1.4h-.8l-.5.2q-.3 0-.5.3l-.1.5q0 .3.2.5l.6.2.6-.2q.3-.1.3-.4l.2-.4zm3.8-1.4h-.9v2.4q0 .3.2.5l.4.2.4-.1v.4h-1l-.3-.3-.1-.4v-2.7h-.8v-.4h.8v-1l.5-.1v1h.8zm1.9-1.5H98v-.6h.4zm-.4 1h.4v3.9H98zm2.4.6q.3-.6 1.3-.6.8 0 1.4.6.3.5.4 1.4 0 .8-.4 1.4-.5.4-1.4.6-.8 0-1.4-.6-.3-.6-.4-1.4 0-.9.4-1.4m.4 2.5q.3.5.9.5a1 1 0 0 0 1-.5q.3-.5.3-1.1l-.3-1.2q-.4-.4-1-.4a1 1 0 0 0-1 .4l-.3 1.2q0 .6.4 1m4.3-2.1v-.9h.4v.7l.2-.2.2-.3.3-.2h.5q.8-.1 1 .4.3.4.3 1v2.4h-.4v-2.3q0-.5-.2-.8t-.7-.4q-.7 0-1 .5l-.1.4v2.7h-.5z"/><path d="M24.5 4.2s-4-1.7-10.6-1.7C7.2 2.5 3.3 4.2 3.3 4.2s-.4 7.7 1.1 12a16 16 0 0 0 9.5 9.9s6.8-2.2 9.4-9.9c1.6-4.3 1.2-12 1.2-12" style="fill:red"/><path d="M20.9 10.8v4.3H16V20h-4.2v-4.9h-5v-4.3h5V5.9H16v4.9z" style="fill:#fff"/></svg>